<svg width="230" height="230" viewBox="0 0 230 230" fill="none" xmlns="http://www.w3.org/2000/svg">
<rect width="230" height="230" fill="#F2F2F2"/>
<g filter="url(#filter0_dd_17803_58779)">
<path d="M115 22.4609L195.141 68.7305V161.27L115 207.539L34.8588 161.27V68.7305L115 22.4609Z" fill="#F2F2F2"/>
<path d="M35.9819 69.3789L115 23.7577L194.018 69.3789V160.621L115 206.242L35.9819 160.621V69.3789Z" stroke="#EC2227" stroke-width="2.24609"/>
</g>
<g clip-path="url(#clip0_17803_58779)">
<path fill-rule="evenodd" clip-rule="evenodd" d="M75.3486 164.437L71.1301 161.944C70.1714 161.369 70.1714 160.602 69.9796 159.643V85.8193C69.9796 84.477 70.3631 83.5182 71.1301 82.176C71.8971 81.0255 72.4724 80.2585 73.6229 79.4915L81.4847 75.0812L86.0867 72.3967L109.289 58.9742L113.315 56.6731L121.752 51.8794C122.711 51.4959 123.286 51.1124 124.245 51.6876L128.464 54.1804C127.505 53.7969 126.738 53.9886 125.971 54.3721L117.534 59.1659L113.507 61.4669L90.3052 74.8895L85.7032 77.574L77.8414 81.9842C76.6909 82.7512 75.9239 83.5182 75.3486 84.6687C74.7734 85.8193 74.3899 86.778 74.1981 88.312V162.136C74.3899 163.095 74.3899 163.862 75.3486 164.437Z" fill="#FA2327"/>
<path fill-rule="evenodd" clip-rule="evenodd" d="M74.9651 165.204L70.7466 162.711C70.1713 162.328 69.7878 161.944 69.596 161.369C69.4043 160.985 69.4043 160.41 69.4043 159.835V85.8192C69.596 83.1347 71.1301 80.4502 73.4311 78.9162C89.5381 69.9039 105.453 59.9329 121.56 51.1124C122.136 50.9206 122.519 50.7289 123.094 50.5371C123.67 50.5371 124.245 50.5371 124.82 50.7289L129.231 53.2216C129.614 53.4134 129.806 53.9886 129.614 54.3721C129.422 54.7556 129.039 54.9474 128.655 54.7556C128.272 54.5639 128.08 54.5639 127.888 54.5639C127.505 54.5639 127.313 54.7556 126.93 54.9474L78.8001 82.7512C76.8826 83.9017 75.7321 86.2027 75.5403 88.312V162.136C75.5403 162.52 75.5403 162.903 75.7321 163.095C75.9238 163.287 75.9238 163.478 76.3073 163.67C76.6908 163.862 76.6908 164.437 76.4991 164.821C75.7321 165.204 75.3486 165.396 74.9651 165.204ZM71.5136 161.369L73.4311 162.52C72.2806 145.454 71.8971 104.803 73.4311 88.312C73.6228 85.6275 75.1568 82.943 77.4578 81.409L125.971 53.4134L124.053 52.2629C123.67 52.0711 123.478 52.0711 123.286 52.0711C122.903 52.0711 122.711 52.2629 122.327 52.4546L74.1981 80.2585C72.2806 81.409 71.1301 83.71 70.9383 85.8192V159.643C70.9383 160.027 70.9383 160.41 71.1301 160.602C71.1301 160.985 71.3218 161.177 71.5136 161.369Z" fill="#AD181B"/>
<path fill-rule="evenodd" clip-rule="evenodd" d="M125.971 136.441L77.8413 164.245C75.9238 165.396 74.1981 164.437 74.1981 162.136V88.312C74.1981 86.011 75.9238 83.1347 77.8413 81.9842L85.7031 77.5739L90.3051 74.8894L113.507 61.4669L117.534 59.1659L125.971 54.3721C127.888 53.2216 129.614 54.1803 129.614 56.4813V130.305C129.614 132.415 128.08 135.291 125.971 136.441Z" fill="#FA2327"/>
<path fill-rule="evenodd" clip-rule="evenodd" d="M126.354 137.208L78.225 165.012C77.458 165.396 76.8827 165.588 76.1157 165.588C75.5405 165.588 75.157 165.396 74.7735 165.204C74.39 165.012 74.0065 164.629 73.8147 164.245C73.4312 163.67 73.4312 163.095 73.4312 162.328V88.312C73.4312 86.9698 73.8147 85.6275 74.5817 84.2852C75.3487 82.943 76.3075 81.9842 77.458 81.2172L125.587 53.4134C126.354 53.0299 126.93 52.8381 127.697 52.8381C128.272 52.8381 128.655 53.0299 129.039 53.2216C129.422 53.4134 129.806 53.7969 129.998 54.1804C130.381 54.7556 130.573 55.3309 130.573 56.2896V130.114C130.573 131.456 130.189 132.798 129.422 134.14C128.464 135.483 127.505 136.441 126.354 137.208ZM77.458 163.478L125.587 135.674C126.546 135.099 127.313 134.332 127.888 133.373C128.464 132.415 128.847 131.264 128.847 130.114V56.2896C128.847 55.7144 128.655 55.3309 128.655 55.1391C128.464 54.9474 128.464 54.7556 128.272 54.7556C128.08 54.7556 127.888 54.5639 127.697 54.5639C127.313 54.5639 126.93 54.7556 126.546 54.9474L78.4167 82.7512C77.458 83.3265 76.691 84.0935 76.1157 85.244C75.5405 86.2028 75.157 87.3533 75.157 88.5038V162.328C75.157 162.903 75.157 163.287 75.3487 163.478C75.5405 163.67 75.5405 163.862 75.7322 163.862C75.924 163.862 76.1157 164.054 76.3075 164.054C76.691 163.862 77.0745 163.862 77.458 163.478Z" fill="#AD181B"/>
<path fill-rule="evenodd" clip-rule="evenodd" d="M80.9094 87.1615V157.534L124.629 132.223V62.0422C110.055 70.2875 95.4824 78.7245 80.9094 87.1615Z" fill="white"/>
<path fill-rule="evenodd" clip-rule="evenodd" d="M81.6765 87.7368V156.192L123.862 131.839V63.3844L81.6765 87.7368ZM80.1425 157.534V87.1615C80.1425 86.9698 80.3343 86.5863 80.526 86.3945L124.245 61.0834C124.437 61.0834 124.437 60.8917 124.629 60.8917C125.012 60.8917 125.396 61.2752 125.396 61.6587V132.031C125.396 132.223 125.204 132.606 125.012 132.798L81.4848 158.109C81.293 158.109 81.1013 158.301 81.1013 158.301C80.526 158.301 80.1425 157.917 80.1425 157.534Z" fill="#AD181B"/>
<path fill-rule="evenodd" clip-rule="evenodd" d="M87.6205 100.584C86.8535 101.159 86.0865 102.31 86.0865 103.269C86.0865 104.227 86.8535 104.611 87.6205 104.227C88.3875 103.652 89.1545 102.502 89.1545 101.543C89.3462 100.584 88.5792 100.009 87.6205 100.584Z" fill="#FA2327"/>
<path fill-rule="evenodd" clip-rule="evenodd" d="M88.196 101.351C87.8125 101.543 87.6207 101.926 87.429 102.31C87.2372 102.693 87.0455 103.077 87.0455 103.46C87.0455 103.652 87.0455 103.652 87.0455 103.844C87.0455 103.844 87.2372 103.844 87.429 103.652C87.8125 103.46 88.0042 103.077 88.196 102.693C88.3877 102.31 88.5795 101.926 88.5795 101.543C88.5795 101.351 88.5795 101.351 88.5795 101.159C88.3877 101.159 88.196 101.159 88.196 101.351ZM85.895 101.351C86.2785 100.776 86.662 100.201 87.2372 99.817C87.6207 99.6253 88.0042 99.4335 88.3877 99.4335C88.7712 99.4335 88.963 99.4335 89.1547 99.6253C89.3465 99.817 89.5382 100.009 89.73 100.201C89.9217 100.584 89.9217 100.968 89.9217 101.351C89.9217 101.926 89.73 102.693 89.3465 103.269C88.963 103.844 88.5795 104.419 88.0042 104.803C87.6207 104.994 87.2372 105.186 86.8537 105.186C86.4702 105.186 86.2785 105.186 86.0867 104.994C85.895 104.803 85.7032 104.611 85.5115 104.419C85.3197 104.036 85.3197 103.652 85.3197 103.269C85.3197 102.693 85.5115 101.926 85.895 101.351Z" fill="#AD181B"/>
<path fill-rule="evenodd" clip-rule="evenodd" d="M87.6205 110.172C86.8535 110.747 86.0865 111.897 86.0865 112.856C86.0865 113.815 86.8535 114.198 87.6205 113.815C88.3875 113.24 89.1545 112.089 89.1545 111.13C89.3462 110.172 88.5792 109.788 87.6205 110.172Z" fill="#FA2327"/>
<path fill-rule="evenodd" clip-rule="evenodd" d="M88.196 110.939C87.8125 111.13 87.6207 111.514 87.429 111.897C87.2372 112.281 87.0455 112.664 87.0455 113.048C87.0455 113.24 87.0455 113.24 87.0455 113.431C87.0455 113.431 87.2372 113.431 87.429 113.24C87.8125 113.048 88.0042 112.664 88.196 112.281C88.3877 111.897 88.5795 111.514 88.5795 111.13C88.5795 110.939 88.5795 110.939 88.5795 110.747C88.3877 110.939 88.196 110.939 88.196 110.939ZM85.895 110.939C86.2785 110.363 86.662 109.788 87.2372 109.405C87.6207 109.213 88.0042 109.021 88.3877 109.021C88.7712 109.021 88.963 109.021 89.1547 109.213C89.3465 109.405 89.5382 109.596 89.73 109.788C89.9217 110.172 89.9217 110.555 89.9217 110.939C89.9217 111.514 89.73 112.281 89.3465 112.856C88.963 113.431 88.5795 114.007 88.0042 114.39C87.6207 114.582 87.2372 114.774 86.8537 114.774C86.662 114.774 86.2785 114.774 86.0867 114.582C85.895 114.39 85.7032 114.198 85.5115 114.007C85.3197 113.623 85.3197 113.24 85.3197 112.856C85.3197 112.281 85.5115 111.706 85.895 110.939Z" fill="#AD181B"/>
<path fill-rule="evenodd" clip-rule="evenodd" d="M87.6205 120.526C86.8535 121.101 86.0865 122.252 86.0865 123.211C86.0865 124.169 86.8535 124.553 87.6205 124.169C88.3875 123.594 89.1545 122.444 89.1545 121.485C89.3462 120.526 88.5792 120.143 87.6205 120.526Z" fill="#FA2327"/>
<path fill-rule="evenodd" clip-rule="evenodd" d="M88.196 121.293C87.8125 121.485 87.6207 121.868 87.429 122.252C87.2372 122.635 87.0455 123.019 87.0455 123.402C87.0455 123.594 87.0455 123.594 87.0455 123.786C87.0455 123.786 87.2372 123.786 87.429 123.594C87.8125 123.402 88.0042 123.019 88.196 122.635C88.3877 122.252 88.5795 121.868 88.5795 121.485C88.5795 121.293 88.5795 121.293 88.5795 121.101C88.3877 121.101 88.196 121.101 88.196 121.293ZM85.895 121.293C86.2785 120.718 86.662 120.143 87.2372 119.759C87.6207 119.567 88.0042 119.376 88.3877 119.376C88.7712 119.376 88.963 119.376 89.1547 119.567C89.3465 119.759 89.5382 119.951 89.73 120.143C89.9217 120.526 89.9217 120.91 89.9217 121.293C89.9217 121.868 89.73 122.635 89.3465 123.211C88.963 123.786 88.5795 124.361 88.0042 124.745C87.6207 124.936 87.2372 125.128 86.8537 125.128C86.662 125.128 86.2785 125.128 86.0867 124.936C85.895 124.745 85.7032 124.553 85.5115 124.361C85.3197 123.978 85.3197 123.594 85.3197 123.211C85.3197 122.635 85.5115 121.868 85.895 121.293Z" fill="#AD181B"/>
<path fill-rule="evenodd" clip-rule="evenodd" d="M75.3486 164.437L71.1301 161.944C70.7466 161.752 70.5549 161.369 70.3631 161.177C69.9796 160.41 69.9796 159.26 69.9796 158.301V145.07V124.169V102.502V87.7367C69.9796 86.3945 69.9796 85.244 70.3631 83.9017C70.5549 83.3265 70.7466 82.7512 71.1301 82.176L75.3486 84.6687C74.9651 85.4357 74.5816 86.011 74.3899 86.778C74.1981 87.7367 74.1981 88.6955 74.1981 89.6542V102.885V123.978V145.07V160.602C74.1981 161.369 74.1981 162.136 74.3899 162.903C74.5816 163.67 74.7734 164.054 75.3486 164.437Z" fill="#D41E21"/>
<path fill-rule="evenodd" clip-rule="evenodd" d="M74.9651 165.204L70.7466 162.711C70.5548 162.519 70.3631 162.328 70.1713 162.136C69.9795 161.944 69.7878 161.752 69.7878 161.561C69.4043 160.794 69.4043 159.643 69.4043 158.684C69.596 134.907 69.596 110.939 69.4043 87.1615C69.4043 85.4357 69.4043 84.0935 70.1713 82.7512C70.3631 82.3677 70.5548 82.176 70.5548 81.7925C70.7466 81.409 71.3218 81.2172 71.7053 81.6007L75.9238 84.0935C76.3073 84.2852 76.4991 84.8605 76.1156 85.244C75.9238 85.4357 75.7321 85.8192 75.7321 86.2027C75.3486 87.3532 75.1568 88.312 75.1568 89.4625C75.1568 113.24 75.3486 137.4 75.1568 161.177C75.1568 161.752 75.1568 162.328 75.1568 162.903C75.1568 163.095 75.3486 163.286 75.3486 163.478C75.3486 163.67 75.5403 163.862 75.7321 163.862C76.1156 164.053 76.1156 164.629 75.9238 165.012C75.7321 165.396 75.3486 165.396 74.9651 165.204ZM71.5136 161.369L73.4311 162.519C73.4311 162.136 73.4311 161.561 73.4311 161.177C73.6228 137.208 73.2393 113.431 73.4311 89.4625C73.4311 87.9285 73.4311 86.778 74.0063 85.4357L74.1981 85.0522L71.3218 83.3265C71.1301 83.5182 71.1301 83.9017 70.9383 84.0935C70.5548 85.0522 70.5548 86.011 70.5548 87.1615C70.7466 110.939 70.7466 134.907 70.5548 158.684C70.5548 159.451 70.5548 160.218 70.7466 160.794L70.9383 160.985C71.3218 161.177 71.3218 161.177 71.5136 161.369Z" fill="#AD181B"/>
<path fill-rule="evenodd" clip-rule="evenodd" d="M94.1401 100.009C93.7566 100.201 93.1813 100.009 92.9896 99.6253C92.7978 99.2418 92.9896 98.6665 93.3731 98.4748L118.684 83.9017C119.068 83.71 119.643 83.9017 119.835 84.2852C120.026 84.6687 119.835 85.244 119.451 85.4357L94.1401 100.009Z" fill="#AD181B"/>
<path fill-rule="evenodd" clip-rule="evenodd" d="M94.1401 110.363C93.7566 110.555 93.1813 110.363 92.9896 109.98C92.7978 109.596 92.9896 109.021 93.3731 108.829L118.684 94.2563C119.068 94.0645 119.643 94.2563 119.835 94.6398C120.026 95.0233 119.835 95.5985 119.451 95.7903L94.1401 110.363Z" fill="#AD181B"/>
<path fill-rule="evenodd" clip-rule="evenodd" d="M94.1401 120.143C93.7566 120.334 93.1813 120.143 92.9896 119.759C92.7978 119.376 92.9896 118.8 93.3731 118.609L111.398 108.254C111.781 108.062 112.356 108.254 112.548 108.638C112.74 109.021 112.548 109.596 112.165 109.788L94.1401 120.143Z" fill="#AD181B"/>
<path fill-rule="evenodd" clip-rule="evenodd" d="M127.697 149.672L121.369 146.029C128.847 150.247 138.243 143.153 143.037 137.784C149.748 130.114 155.501 117.266 153.008 107.104C152.241 104.036 150.707 101.543 148.022 100.009L154.734 103.844C161.445 108.062 160.486 118.992 158.377 125.512C155.309 135.291 146.872 147.371 136.709 150.439C133.641 151.206 130.573 151.206 127.697 149.672Z" fill="#D41E21"/>
<path fill-rule="evenodd" clip-rule="evenodd" d="M127.313 150.439C126.354 149.864 121.369 147.179 120.985 146.796C120.602 146.604 120.41 146.029 120.602 145.645C120.794 145.262 121.369 145.07 121.752 145.262C124.629 146.988 127.888 146.604 131.148 145.454C135.558 143.728 139.777 140.085 142.461 137.208C145.913 133.182 149.365 127.621 151.282 121.677C152.816 116.691 153.583 111.706 152.433 107.104C152.049 105.57 151.474 104.227 150.707 103.077C149.94 102.118 148.981 101.159 147.831 100.392C147.447 100.201 147.255 99.6253 147.639 99.2418C147.83 98.8583 148.406 98.6665 148.789 99.05C151.09 100.392 153.391 101.543 155.501 102.885C158.569 104.803 160.103 108.062 160.678 111.706C161.445 116.308 160.486 121.677 159.336 125.512C157.61 130.881 154.35 137.017 150.132 141.81C146.488 146.029 142.078 149.48 137.092 150.823C135.367 151.398 133.641 151.59 132.107 151.398C130.381 151.59 128.847 151.206 127.313 150.439ZM126.546 148.138L128.08 149.097C129.231 149.864 130.573 150.056 131.915 150.247C133.449 150.439 134.983 150.056 136.325 149.672C140.927 148.33 145.146 145.07 148.598 141.043C152.624 136.25 155.884 130.497 157.418 125.32C158.569 121.677 159.336 116.499 158.76 112.089C158.185 108.829 156.843 106.145 154.158 104.419L152.241 103.269C152.816 104.419 153.2 105.57 153.583 106.72C154.734 111.514 154.158 116.883 152.433 122.06C150.515 128.196 147.063 133.949 143.42 137.975C140.544 141.235 136.325 144.878 131.532 146.796C129.998 147.755 128.272 148.138 126.546 148.138Z" fill="#AD181B"/>
<path fill-rule="evenodd" clip-rule="evenodd" d="M139.01 104.036C128.655 109.98 120.41 124.361 120.41 136.25C120.41 148.138 128.655 152.932 139.01 146.988C149.365 141.043 157.61 126.662 157.61 114.774C157.61 102.885 149.365 98.0912 139.01 104.036Z" fill="white"/>
<path fill-rule="evenodd" clip-rule="evenodd" d="M139.393 104.611C134.408 107.487 129.806 112.473 126.546 118.225C123.286 123.978 121.177 130.305 121.177 136.058C121.177 139.318 121.752 142.002 123.094 144.111C123.861 145.454 125.012 146.604 126.354 147.371C127.696 148.138 129.23 148.522 130.764 148.522C133.065 148.522 135.75 147.755 138.626 146.029C143.612 143.153 148.214 138.167 151.474 132.415C154.733 126.662 156.843 120.334 156.843 114.39C156.843 111.13 156.267 108.446 154.925 106.337C154.158 104.994 153.008 103.844 151.665 103.077C150.323 102.31 148.789 101.926 147.255 101.926C144.954 102.31 142.27 103.077 139.393 104.611ZM125.204 117.458C128.655 111.514 133.449 106.337 138.626 103.269C141.694 101.543 144.762 100.584 147.255 100.584C149.173 100.584 150.898 100.968 152.432 101.926C153.966 102.885 155.309 104.036 156.267 105.761C157.61 108.062 158.377 111.13 158.377 114.582C158.377 120.718 156.267 127.429 152.816 133.373C149.364 139.318 144.571 144.495 139.393 147.563C136.325 149.289 133.257 150.247 130.764 150.247C128.847 150.247 127.121 149.864 125.587 148.905C124.053 147.946 122.711 146.796 121.752 145.07C120.41 142.769 119.643 139.701 119.643 136.25C119.643 130.114 121.752 123.402 125.204 117.458Z" fill="#AD181B"/>
<path fill-rule="evenodd" clip-rule="evenodd" d="M134.791 96.3655C139.393 93.681 145.529 91.7635 150.707 94.448L157.035 98.0912C147.639 93.4892 136.517 102.118 130.573 108.829C122.711 117.842 116.192 132.798 118.493 144.878C119.26 148.713 120.985 152.165 124.437 154.466C122.903 153.507 118.493 151.206 117.342 150.247C110.056 144.687 111.206 132.415 113.507 124.745C116.767 113.623 124.629 102.31 134.791 96.3655Z" fill="#D41E21"/>
<path fill-rule="evenodd" clip-rule="evenodd" d="M134.216 95.5985C136.9 94.0645 139.968 92.7223 143.228 92.5305C145.913 92.147 148.405 92.5305 150.898 93.8728L157.226 97.5161C157.609 97.7078 157.801 98.2831 157.609 98.6666C157.418 99.0501 156.842 99.2418 156.459 99.0501C152.624 97.1326 148.597 97.5161 144.762 99.2418C139.393 101.351 134.408 105.953 131.148 109.788C127.121 114.582 123.286 121.101 120.985 127.813C119.068 133.565 118.301 139.701 119.259 145.07C119.643 146.988 120.218 148.713 121.177 150.248C122.136 151.782 123.286 153.124 124.82 154.083C125.204 154.274 125.204 154.85 125.012 155.233C124.82 155.617 124.245 155.617 123.861 155.425L122.519 154.658C120.602 153.507 117.725 151.973 116.767 151.206C113.507 148.713 111.781 144.878 111.206 140.66C110.439 135.291 111.398 129.155 112.74 124.745C114.466 118.992 117.534 113.048 121.369 107.871C124.82 102.885 129.23 98.6666 134.216 95.5985ZM143.42 94.0645C140.544 94.448 137.476 95.5985 134.983 96.9408C130.189 99.8171 125.971 103.844 122.519 108.446C118.684 113.431 116 119.184 114.274 124.936C112.932 129.155 111.973 135.099 112.74 140.085C113.315 143.92 114.849 147.371 117.725 149.48C118.109 149.864 118.876 150.247 120.026 150.823L119.835 150.439C118.876 148.713 118.109 146.796 117.725 144.687C116.575 138.934 117.534 132.606 119.451 126.662C121.752 119.759 125.779 113.048 129.997 108.062C133.449 104.036 138.626 99.4336 144.187 97.1326C146.68 96.1738 149.172 95.5985 151.665 95.5985L150.131 94.8315C148.022 94.0645 145.721 93.8728 143.42 94.0645Z" fill="#AD181B"/>
<path fill-rule="evenodd" clip-rule="evenodd" d="M127.505 149.48L120.985 145.837H121.177L121.369 146.029L127.696 149.672L127.505 149.48Z" fill="#D41E21"/>
<path fill-rule="evenodd" clip-rule="evenodd" d="M120.602 146.604C120.218 146.412 120.026 145.837 120.218 145.454C120.41 145.07 120.985 144.878 121.369 145.07C123.67 146.412 125.779 147.563 128.08 148.905C128.463 149.097 128.655 149.672 128.463 150.056C128.272 150.439 127.696 150.631 127.313 150.439C125.204 149.097 122.903 147.946 120.602 146.604Z" fill="#AD181B"/>
<path fill-rule="evenodd" clip-rule="evenodd" d="M154.35 103.46L148.022 99.8171H147.83L147.639 99.6253L154.158 103.269L154.35 103.46Z" fill="#D41E21"/>
<path fill-rule="evenodd" clip-rule="evenodd" d="M148.406 99.2418L154.734 102.885C155.117 103.077 155.309 103.652 155.117 104.036C154.925 104.419 154.35 104.611 153.967 104.419C151.665 103.077 149.556 101.926 147.255 100.584C146.872 100.392 146.68 99.817 146.872 99.4335C147.063 99.05 147.639 98.8583 148.022 99.05L148.406 99.2418Z" fill="#AD181B"/>
<path fill-rule="evenodd" clip-rule="evenodd" d="M154.35 97.1325C156.076 97.8995 158.568 99.4335 159.719 100.967L161.253 98.6665C162.595 96.5572 157.226 93.1057 156.076 94.448L154.35 97.1325Z" fill="#FA2327"/>
<path fill-rule="evenodd" clip-rule="evenodd" d="M155.5 96.9407C156.267 97.3242 157.034 97.8995 157.801 98.283C158.376 98.6665 158.952 99.2418 159.527 99.6253L160.486 98.0912C160.677 97.7077 160.486 97.3242 160.102 96.749C159.91 96.3655 159.527 96.1737 159.143 95.7902C158.76 95.5985 158.376 95.215 157.993 95.0232C157.418 94.8315 156.842 94.6397 156.651 94.6397L155.5 96.9407ZM157.034 99.6253C156.075 98.8583 154.925 98.283 154.158 97.8995H153.966C153.583 97.7077 153.391 97.1325 153.774 96.749L155.692 93.8727C156.267 93.1057 157.609 93.1057 158.952 93.681C159.527 93.8727 159.91 94.2562 160.486 94.6397C160.869 95.0232 161.444 95.4067 161.636 95.7902C162.403 96.749 162.787 98.0912 162.211 99.05L160.677 101.351L160.486 101.543C160.102 101.735 159.719 101.735 159.335 101.351C158.568 100.968 157.801 100.201 157.034 99.6253Z" fill="#AD181B"/>
<path fill-rule="evenodd" clip-rule="evenodd" d="M143.229 94.8315V96.9408C143.229 97.1325 143.037 97.3243 143.037 97.3243C142.653 97.7078 142.078 98.0913 141.695 98.2831C140.544 98.6666 139.01 98.6666 137.859 98.0913C137.668 97.8995 137.284 97.7078 137.092 97.516C136.901 97.3243 136.709 97.1325 136.709 96.9408V94.8315V95.0233C136.901 95.5985 137.476 95.982 137.859 96.1738C139.202 96.749 140.928 96.749 142.078 96.1738C142.462 95.982 142.653 95.7903 142.845 95.5985C142.845 95.4068 143.037 95.4068 143.037 95.215C143.229 95.0233 143.229 95.0233 143.229 94.8315Z" fill="#D41E21"/>
<path fill-rule="evenodd" clip-rule="evenodd" d="M143.995 94.8315V96.9407V97.1325C143.995 97.3242 143.995 97.3242 143.803 97.516C143.803 97.7077 143.612 97.7077 143.612 97.8995C143.42 98.0912 143.228 98.4747 142.845 98.6665C142.461 98.8582 142.078 99.05 141.886 99.2417C141.119 99.4335 140.352 99.6252 139.585 99.6252C138.818 99.6252 138.051 99.4335 137.476 99.05C137.284 99.05 137.092 98.8582 136.9 98.8582C136.709 98.6665 136.517 98.6665 136.517 98.4747C136.325 98.283 136.325 98.283 136.133 98.0912C135.942 97.8995 135.942 97.7077 135.942 97.516C135.942 97.3242 135.942 97.3242 135.942 97.1325V95.0232C135.942 94.6397 136.325 94.2562 136.709 94.2562C137.092 94.2562 137.476 94.6397 137.476 95.0232L137.667 95.215C137.859 95.4067 138.051 95.4067 138.243 95.5985C138.818 95.7902 139.393 95.982 140.16 95.982C140.735 95.982 141.502 95.7902 141.886 95.5985C142.078 95.5985 142.078 95.4067 142.269 95.4067L142.461 95.215C142.461 95.0232 142.653 95.0232 142.653 95.0232C142.653 94.6397 143.228 94.2562 143.612 94.448C143.803 94.0645 143.995 94.448 143.995 94.8315ZM142.269 96.9407C141.694 97.1325 140.735 97.3242 139.968 97.3242C139.01 97.3242 138.243 97.1325 137.476 96.749C137.476 96.749 137.476 96.9407 137.667 96.9407L137.859 97.1325L138.051 97.3242C138.434 97.516 139.01 97.7077 139.585 97.7077C140.16 97.7077 140.735 97.7077 141.311 97.516C141.502 97.516 141.694 97.3242 141.886 97.1325C142.078 97.1325 142.269 96.9407 142.269 96.9407Z" fill="#AD181B"/>
<path fill-rule="evenodd" clip-rule="evenodd" d="M147.063 91.1883V93.1058C146.872 94.2563 146.105 94.8315 145.338 95.4068C143.804 96.3655 142.27 96.749 140.352 96.749C138.435 96.749 136.901 96.5573 135.175 95.5985C134.408 95.215 133.833 94.8315 133.257 94.0645C133.066 93.681 132.874 93.2975 132.682 92.914V90.9965C132.874 91.38 132.874 91.7635 133.257 92.147C133.833 92.914 134.408 93.2975 135.175 93.681C136.901 94.448 138.435 94.8315 140.352 94.8315C142.078 94.8315 143.804 94.448 145.338 93.4893C146.105 92.914 146.872 92.3388 147.063 91.1883Z" fill="#FA2327"/>
<path fill-rule="evenodd" clip-rule="evenodd" d="M147.83 91.1883V93.1058V93.2975C147.638 93.8728 147.447 94.448 147.063 95.0233C146.68 95.4068 146.296 95.7903 145.721 96.1738C144.954 96.749 143.995 96.9408 143.228 97.3243C142.269 97.516 141.502 97.7078 140.544 97.7078C139.585 97.7078 138.626 97.7078 137.859 97.516C136.9 97.3243 136.133 97.1325 135.175 96.5573C134.791 96.3655 134.408 96.1738 134.024 95.7903C133.641 95.5985 133.449 95.215 133.065 94.8315C132.874 94.6398 132.874 94.448 132.682 94.0645C132.49 93.8728 132.49 93.681 132.49 93.2975V93.1058V91.1883C132.49 90.8048 132.874 90.4213 133.257 90.4213C133.641 90.4213 134.024 90.8048 134.024 91.1883C134.024 91.38 134.024 91.5718 134.216 91.5718C134.216 91.7635 134.408 91.7635 134.408 91.9553C134.599 92.147 134.791 92.5305 134.983 92.7223C135.175 92.914 135.558 93.1058 135.942 93.2975C136.709 93.681 137.476 93.8728 138.243 94.0645C139.01 94.2563 139.777 94.2563 140.735 94.2563C141.502 94.2563 142.461 94.0645 143.228 93.8728C143.995 93.681 144.762 93.4893 145.337 92.914C145.721 92.7223 146.104 92.3388 146.296 92.147C146.488 91.9553 146.68 91.5718 146.871 91.1883C146.871 90.8048 147.447 90.4213 147.83 90.613C147.638 90.4213 147.83 90.8048 147.83 91.1883ZM144.762 94.6398C144.187 94.8315 143.612 95.0233 143.036 95.215C142.078 95.4068 141.311 95.5985 140.352 95.5985C139.393 95.5985 138.434 95.5985 137.476 95.4068C136.709 95.215 135.942 95.0233 135.175 94.6398L135.558 94.8315C136.325 95.215 137.092 95.4068 137.859 95.5985C138.626 95.7903 139.393 95.7903 140.352 95.7903C141.119 95.7903 142.078 95.5985 142.653 95.4068C143.42 95.4068 143.995 95.215 144.762 94.6398Z" fill="#AD181B"/>
<path fill-rule="evenodd" clip-rule="evenodd" d="M134.791 87.9285C137.668 86.3945 142.078 86.3945 144.954 87.9285C147.83 89.4625 147.83 92.147 144.954 93.681C142.078 95.215 137.668 95.215 134.791 93.681C132.107 92.147 132.107 89.4625 134.791 87.9285Z" fill="#D41E21"/>
<path fill-rule="evenodd" clip-rule="evenodd" d="M134.408 87.1615C135.942 86.2027 137.859 85.8192 139.777 85.8192C141.694 85.8192 143.612 86.2027 145.146 87.1615C146.104 87.7367 146.68 88.312 147.063 89.079C147.447 89.6542 147.447 90.2295 147.447 90.8047C147.447 91.38 147.255 91.9552 147.063 92.5305C146.68 93.2975 145.913 93.8727 145.146 94.448C143.612 95.4067 141.694 95.7903 139.777 95.7903C137.859 95.7903 135.75 95.4067 134.408 94.448C133.449 93.8727 132.874 93.2975 132.49 92.5305C132.107 91.9552 132.107 91.38 132.107 90.8047C132.107 90.2295 132.298 89.6542 132.49 89.079C132.874 88.312 133.449 87.7367 134.408 87.1615ZM139.968 87.545C138.243 87.545 136.517 87.9285 135.366 88.6955C134.599 89.079 134.216 89.4625 134.024 90.0377C133.832 90.4212 133.832 90.613 133.832 90.9965C133.832 91.38 133.832 91.5717 134.024 91.9552C134.216 92.3387 134.791 92.914 135.366 93.2975C136.709 94.0645 138.243 94.448 139.968 94.448C141.694 94.448 143.42 94.0645 144.57 93.2975C145.146 92.914 145.721 92.5305 145.913 91.9552C146.104 91.5717 146.104 91.38 146.104 90.9965C146.104 90.613 146.104 90.4212 145.913 90.0377C145.721 89.6542 145.146 89.079 144.57 88.6955C143.228 87.9285 141.694 87.545 139.968 87.545Z" fill="#AD181B"/>
<path fill-rule="evenodd" clip-rule="evenodd" d="M124.82 117.266C129.039 109.98 134.791 103.652 141.119 100.009C147.447 96.3656 153.199 95.9821 157.418 98.4748C161.636 100.968 164.129 105.953 164.129 113.431C164.129 120.718 161.636 128.963 157.418 136.058C153.199 143.344 147.447 149.672 141.119 153.316C134.791 156.959 129.039 157.342 124.82 154.85C120.602 152.357 118.109 147.371 118.109 139.893C118.109 132.606 120.602 124.361 124.82 117.266ZM154.35 103.46C152.624 102.502 150.515 102.118 148.214 102.31C145.913 102.502 143.612 103.269 140.927 104.803C138.434 106.337 135.942 108.254 133.641 110.555C131.34 113.048 129.23 115.732 127.505 118.8C125.779 121.868 124.437 124.936 123.478 128.196C122.519 131.264 122.136 134.332 122.136 137.4C122.136 140.276 122.711 142.961 123.478 144.878C124.437 146.988 125.779 148.522 127.505 149.672C129.23 150.631 131.34 151.015 133.641 150.823C135.942 150.631 138.243 149.864 140.927 148.33C143.42 146.796 145.913 144.878 148.214 142.577C150.515 140.085 152.624 137.4 154.35 134.332C156.075 131.264 157.418 128.196 158.376 124.936C159.335 121.868 159.719 118.8 159.719 115.732C159.719 112.856 159.143 110.172 158.376 108.254C157.609 106.145 156.075 104.611 154.35 103.46Z" fill="#FA2327"/>
<path fill-rule="evenodd" clip-rule="evenodd" d="M124.053 116.883C126.162 113.24 128.847 109.596 131.723 106.72C134.408 103.844 137.476 101.351 140.736 99.4335C143.995 97.516 147.063 96.5573 149.94 96.1738C153.008 95.7903 155.692 96.3655 157.993 97.7078C160.294 99.05 162.02 101.159 163.362 103.844C164.513 106.337 165.088 109.596 165.088 113.431C165.088 117.075 164.513 120.91 163.362 124.745C162.212 128.771 160.486 132.798 158.377 136.441C156.267 140.085 153.583 143.728 150.707 146.604C148.022 149.48 144.954 151.973 141.694 153.891C138.434 155.808 135.366 156.767 132.49 157.15C129.422 157.534 126.738 156.959 124.437 155.616C122.136 154.274 120.41 152.165 119.068 149.48C117.917 146.988 117.342 143.728 117.342 139.893C117.342 136.25 117.917 132.415 119.068 128.58C120.218 124.553 121.944 120.526 124.053 116.883ZM132.874 107.679C130.189 110.555 127.696 114.007 125.587 117.65C123.478 121.293 121.752 125.128 120.602 128.963C119.451 132.606 118.876 136.441 118.876 139.893C118.876 143.344 119.451 146.412 120.602 148.713C121.752 151.206 123.286 152.932 125.204 154.082C127.121 155.233 129.614 155.616 132.107 155.425C134.791 155.233 137.667 154.274 140.544 152.548C143.612 150.823 146.488 148.33 149.173 145.645C151.857 142.769 154.542 139.318 156.459 135.674C158.568 132.031 160.294 128.196 161.445 124.361C162.595 120.718 163.17 116.883 163.17 113.431C163.17 109.98 162.595 106.912 161.445 104.611C160.294 102.118 158.76 100.392 156.843 99.2418C154.925 98.0913 152.432 97.7078 149.94 97.8995C147.255 98.0913 144.379 99.05 141.503 100.776C138.434 102.502 135.558 104.803 132.874 107.679ZM153.966 104.227C153.199 103.844 152.241 103.46 151.474 103.269C150.515 103.077 149.556 103.077 148.406 103.077C147.255 103.269 146.296 103.46 145.146 103.844C143.995 104.227 142.845 104.803 141.694 105.57C140.544 106.337 139.201 107.104 138.051 108.062C136.9 109.021 135.75 110.172 134.599 111.322C133.449 112.473 132.49 113.815 131.34 115.157C130.381 116.499 129.422 118.033 128.463 119.376C127.696 120.91 126.929 122.444 126.162 123.978C125.587 125.512 125.012 127.046 124.437 128.58C124.053 130.114 123.67 131.648 123.478 133.182C123.286 134.716 123.094 136.058 123.094 137.592C123.094 138.934 123.286 140.276 123.478 141.427C123.67 142.577 124.053 143.728 124.437 144.687C124.82 145.645 125.395 146.604 125.971 147.179C126.546 147.946 127.313 148.522 128.08 148.905C128.847 149.289 129.806 149.672 130.573 149.864C131.531 150.056 132.49 150.056 133.641 150.056C134.791 149.864 135.75 149.672 136.9 149.289C138.051 148.905 139.201 148.33 140.352 147.563C141.503 146.796 142.653 146.029 143.804 145.07C144.954 144.111 146.105 142.961 147.255 141.81C148.406 140.66 149.364 139.318 150.515 137.975C151.474 136.633 152.432 135.099 153.391 133.757C154.158 132.223 154.925 130.689 155.692 129.155C156.267 127.621 156.843 126.087 157.418 124.553C157.801 123.019 158.185 121.485 158.377 119.951C158.568 118.417 158.76 117.075 158.76 115.541C158.76 114.198 158.568 112.856 158.377 111.706C158.185 110.555 157.801 109.405 157.418 108.446C157.034 107.487 156.459 106.528 155.884 105.953C155.5 105.378 154.733 104.611 153.966 104.227ZM151.665 101.735C150.515 101.543 149.364 101.543 148.214 101.543C147.063 101.735 145.721 101.926 144.571 102.31C143.42 102.693 142.078 103.269 140.736 104.036C139.393 104.803 138.243 105.57 136.9 106.72C135.558 107.679 134.408 108.829 133.257 109.98C132.107 111.13 130.956 112.473 129.997 114.007C129.039 115.349 127.888 116.883 127.121 118.417C126.162 119.951 125.395 121.485 124.82 123.211C124.053 124.745 123.478 126.47 123.094 128.004C122.711 129.538 122.327 131.264 121.944 132.798C121.752 134.332 121.56 135.866 121.56 137.4C121.56 138.934 121.752 140.276 121.944 141.619C122.136 142.961 122.519 144.111 123.094 145.262C123.67 146.412 124.245 147.371 125.012 148.138C125.779 148.905 126.546 149.672 127.505 150.247C128.463 150.823 129.422 151.206 130.573 151.398C131.723 151.59 132.874 151.59 134.024 151.59C135.175 151.398 136.517 151.206 137.667 150.823C138.818 150.439 140.16 149.864 141.503 149.097C142.845 148.33 143.995 147.563 145.338 146.604C146.68 145.645 147.83 144.495 148.981 143.344C150.131 142.194 151.282 140.852 152.241 139.318C153.199 137.975 154.35 136.441 155.117 134.907C156.076 133.373 156.843 131.839 157.418 130.114C158.185 128.58 158.76 126.854 159.144 125.32C159.527 123.786 159.911 122.06 160.294 120.526C160.486 118.992 160.678 117.458 160.678 115.924C160.678 114.39 160.486 113.048 160.294 111.706C160.102 110.363 159.719 109.213 159.144 108.062C158.568 106.912 157.993 105.953 157.226 105.186C156.459 104.419 155.692 103.652 154.733 103.077C153.775 102.31 152.816 101.926 151.665 101.735Z" fill="#AD181B"/>
<path fill-rule="evenodd" clip-rule="evenodd" d="M151.09 107.104C151.282 106.72 151.857 106.528 152.24 106.72C152.624 106.912 152.816 107.487 152.624 107.871L139.968 129.73C139.777 130.114 139.201 130.305 138.818 130.114C138.434 129.922 138.243 129.347 138.434 128.963L151.09 107.104Z" fill="#AD181B"/>
<path fill-rule="evenodd" clip-rule="evenodd" d="M139.585 140.276C139.585 139.893 139.969 139.509 140.352 139.509C140.736 139.509 141.119 139.893 141.119 140.276V144.111C141.119 144.495 140.736 144.878 140.352 144.878C139.969 144.878 139.585 144.495 139.585 144.111V140.276Z" fill="#AD181B"/>
<path fill-rule="evenodd" clip-rule="evenodd" d="M153.007 119.951C152.624 120.143 152.049 119.951 151.857 119.567C151.665 119.184 151.857 118.609 152.24 118.417L155.692 116.499C156.075 116.308 156.651 116.499 156.842 116.883C157.034 117.266 156.842 117.842 156.459 118.033L153.007 119.951Z" fill="#AD181B"/>
<path fill-rule="evenodd" clip-rule="evenodd" d="M141.119 112.281C141.119 112.664 140.736 113.048 140.352 113.048C139.969 113.048 139.585 112.664 139.585 112.281V108.446C139.585 108.062 139.969 107.679 140.352 107.679C140.736 107.679 141.119 108.062 141.119 108.446V112.281Z" fill="#AD181B"/>
<path fill-rule="evenodd" clip-rule="evenodd" d="M127.888 132.606C128.272 132.415 128.847 132.606 129.039 132.99C129.23 133.373 129.039 133.949 128.655 134.14L125.204 136.058C124.82 136.25 124.245 136.058 124.053 135.674C123.861 135.291 124.053 134.716 124.437 134.524L127.888 132.606Z" fill="#AD181B"/>
<path fill-rule="evenodd" clip-rule="evenodd" d="M139.969 125.895C140.352 125.32 140.736 124.936 141.119 124.553C141.503 124.361 142.078 124.169 142.27 124.361C142.653 124.553 142.845 124.936 142.845 125.512C142.845 126.087 142.653 126.662 142.27 127.237C141.886 127.813 141.503 128.196 141.119 128.58C140.736 128.771 140.16 128.963 139.969 128.771C139.585 128.58 139.393 128.196 139.393 127.621C139.393 127.046 139.585 126.47 139.969 125.895Z" fill="#FA2327"/>
<path fill-rule="evenodd" clip-rule="evenodd" d="M139.202 125.512C139.393 125.128 139.585 124.936 139.969 124.553C140.16 124.361 140.544 123.978 140.736 123.786C141.119 123.594 141.311 123.402 141.694 123.402C142.078 123.402 142.461 123.402 142.653 123.594C143.037 123.786 143.228 123.978 143.42 124.361C143.612 124.745 143.612 124.936 143.612 125.32C143.612 125.703 143.612 126.087 143.42 126.47C143.228 126.854 143.228 127.237 143.037 127.429C142.845 127.813 142.653 128.004 142.27 128.388C142.078 128.58 141.694 128.963 141.503 129.155C141.119 129.347 140.927 129.538 140.544 129.538C140.16 129.538 139.777 129.538 139.585 129.347C139.202 129.155 139.01 128.963 138.818 128.58C138.626 128.388 138.626 128.004 138.626 127.621C138.626 127.237 138.626 126.854 138.818 126.47C138.818 126.087 139.01 125.895 139.202 125.512ZM140.927 125.703C140.736 125.895 140.544 126.087 140.544 126.279C140.352 126.47 140.352 126.662 140.16 126.854C140.16 127.046 140.16 127.237 140.16 127.429C140.16 127.621 140.16 127.621 140.16 127.813C140.16 127.813 140.352 127.813 140.544 127.621C140.736 127.621 140.927 127.429 140.927 127.237C141.119 127.046 141.311 126.854 141.311 126.662C141.503 126.47 141.503 126.279 141.694 125.895C141.694 125.703 141.694 125.512 141.694 125.32C141.694 125.128 141.694 125.128 141.694 124.936C141.694 124.936 141.503 124.936 141.311 125.128C141.311 125.512 141.119 125.512 140.927 125.703Z" fill="#AD181B"/>
<path fill-rule="evenodd" clip-rule="evenodd" d="M114.657 73.1637V61.2751L93.7565 73.3554V85.244L114.657 73.1637ZM96.2493 81.6007C96.2493 78.9162 96.2493 76.9987 96.2493 74.3142C101.618 71.2462 106.987 68.1782 112.356 65.1102C112.356 67.7947 112.356 69.7122 112.356 72.3967C106.987 75.4647 101.618 78.5327 96.2493 81.6007Z" fill="white"/>
<path fill-rule="evenodd" clip-rule="evenodd" d="M113.89 72.7802V62.8092L94.7152 73.9307V83.9017L113.89 72.7802ZM115.424 61.2752V73.1637C115.424 73.3555 115.233 73.739 115.041 73.9307L94.3317 86.011C94.14 86.011 94.14 86.2027 93.9482 86.2027C93.5647 86.2027 93.1812 85.8192 93.1812 85.4357V73.3555C93.1812 73.1637 93.373 72.7802 93.5647 72.5884L114.274 60.5082C114.466 60.5082 114.466 60.3164 114.657 60.3164C115.233 60.5082 115.424 60.8917 115.424 61.2752ZM95.4822 81.6007V74.3142C95.4822 73.9307 95.674 73.739 95.8657 73.5472L111.973 64.3432C112.356 64.1514 112.932 64.3432 113.123 64.7267C113.123 64.9184 113.315 64.9184 113.315 65.1102V72.3967C113.315 72.7802 113.123 72.972 112.932 73.1637L96.8245 82.3677C96.441 82.5595 95.8657 82.3677 95.674 81.9842C95.4822 81.7925 95.4822 81.7925 95.4822 81.6007ZM97.0162 74.8895L111.398 66.4524V71.8214L97.0162 80.2585V74.8895V74.8895Z" fill="#AD181B"/>
<path fill-rule="evenodd" clip-rule="evenodd" d="M93.9483 73.3555L114.657 61.2752L111.781 59.7412L110.055 58.7824L89.3463 70.671L93.9483 73.3555Z" fill="white"/>
<path fill-rule="evenodd" clip-rule="evenodd" d="M93.9485 72.3967L113.124 61.2751L110.247 59.5494L91.0722 70.6709L93.9485 72.3967ZM115.041 62.0421L94.1402 74.1224C93.9485 74.3142 93.565 74.3142 93.3732 74.1224L88.7712 71.4379C88.5795 71.4379 88.5795 71.2462 88.3877 71.0544C88.196 70.6709 88.3877 70.0957 88.7712 69.9039L109.672 57.8236C109.864 57.6319 110.247 57.6319 110.439 57.8236L115.041 60.5081C115.233 60.5081 115.233 60.6999 115.425 60.8916C115.616 61.2751 115.425 61.8504 115.041 62.0421Z" fill="#AD181B"/>
<path fill-rule="evenodd" clip-rule="evenodd" d="M89.3463 73.1637L91.2638 74.3142V83.9017L93.9483 85.244V73.3554L89.3463 70.6709V73.1637Z" fill="#FA2327"/>
<path fill-rule="evenodd" clip-rule="evenodd" d="M90.1134 72.5884L91.6474 73.5472C91.8392 73.7389 92.0309 73.9307 92.0309 74.3142V83.3264L92.9897 83.9017V73.9307L90.1134 72.2049V72.5884ZM90.4969 74.6977L88.9629 73.7389C88.7712 73.5472 88.5794 73.3554 88.5794 72.9719V70.6709C88.5794 70.4792 88.5794 70.4792 88.7712 70.2874C88.9629 69.9039 89.5382 69.7121 89.9217 69.9039L94.3319 72.5884C94.5237 72.7802 94.7154 72.9719 94.7154 73.3554V85.244C94.7154 85.4357 94.7154 85.4357 94.5237 85.6275C94.3319 86.011 93.7567 86.2027 93.3732 86.011L90.8804 84.6687C90.6887 84.477 90.4969 84.2852 90.4969 83.9017V74.6977Z" fill="#AD181B"/>
<path fill-rule="evenodd" clip-rule="evenodd" d="M109.864 66.4524V70.4792L112.357 72.2049V65.1102L109.864 66.4524Z" fill="white"/>
<path fill-rule="evenodd" clip-rule="evenodd" d="M110.631 67.0276V70.0956L111.59 70.6709V66.4524L110.631 67.0276ZM108.905 70.4791V66.4524C108.905 66.2606 109.097 65.8771 109.289 65.6854L111.781 64.3431C111.973 64.3431 111.973 64.1514 112.165 64.1514C112.548 64.1514 112.932 64.5349 112.932 64.9184V72.2049C112.932 72.3966 112.932 72.5884 112.74 72.5884C112.548 72.9719 111.973 72.9719 111.59 72.7801L109.097 71.0544C109.097 71.0544 108.905 70.8626 108.905 70.4791Z" fill="#AD181B"/>
<path fill-rule="evenodd" clip-rule="evenodd" d="M96.2494 78.341L109.864 70.4792L112.356 72.2049L96.2494 81.6007V78.341Z" fill="white"/>
<path fill-rule="evenodd" clip-rule="evenodd" d="M95.866 77.574L109.289 69.7122C109.48 69.5204 109.864 69.5204 110.056 69.7122L112.548 71.4379C112.932 71.6297 112.932 72.2049 112.74 72.5884C112.74 72.7802 112.548 72.7802 112.357 72.7802L96.2495 81.9842C95.866 82.176 95.2907 81.9842 95.099 81.6007C95.099 81.409 94.9072 81.409 94.9072 81.2172V77.9575C95.4825 78.1492 95.6742 77.7657 95.866 77.574ZM109.672 71.4379L97.0165 78.7245V80.0667L110.823 72.2049L109.672 71.4379Z" fill="#AD181B"/>
</g>
<defs>
<filter id="filter0_dd_17803_58779" x="25.8744" y="13.4766" width="178.251" height="203.047" filterUnits="userSpaceOnUse" color-interpolation-filters="sRGB">
<feFlood flood-opacity="0" result="BackgroundImageFix"/>
<feColorMatrix in="SourceAlpha" type="matrix" values="0 0 0 0 0 0 0 0 0 0 0 0 0 0 0 0 0 0 127 0" result="hardAlpha"/>
<feOffset dx="-2.24609" dy="-2.24609"/>
<feGaussianBlur stdDeviation="3.36914"/>
<feColorMatrix type="matrix" values="0 0 0 0 1 0 0 0 0 1 0 0 0 0 1 0 0 0 1 0"/>
<feBlend mode="normal" in2="BackgroundImageFix" result="effect1_dropShadow_17803_58779"/>
<feColorMatrix in="SourceAlpha" type="matrix" values="0 0 0 0 0 0 0 0 0 0 0 0 0 0 0 0 0 0 127 0" result="hardAlpha"/>
<feOffset dx="2.24609" dy="2.24609"/>
<feGaussianBlur stdDeviation="3.36914"/>
<feColorMatrix type="matrix" values="0 0 0 0 0.682353 0 0 0 0 0.682353 0 0 0 0 0.752941 0 0 0 0.4 0"/>
<feBlend mode="normal" in2="effect1_dropShadow_17803_58779" result="effect2_dropShadow_17803_58779"/>
<feBlend mode="normal" in="SourceGraphic" in2="effect2_dropShadow_17803_58779" result="shape"/>
</filter>
<clipPath id="clip0_17803_58779">
<rect width="95.6836" height="115.05" fill="white" transform="translate(69.4043 50.5371)"/>
</clipPath>
</defs>
</svg>
