<svg width="230" height="230" viewBox="0 0 230 230" fill="none" xmlns="http://www.w3.org/2000/svg">
<rect width="230" height="230" fill="#F2F2F2"/>
<g filter="url(#filter0_dd_17803_58838)">
<path d="M115 22.4609L195.141 68.7305V161.27L115 207.539L34.8588 161.27V68.7305L115 22.4609Z" fill="#F2F2F2"/>
<path d="M35.9819 69.3789L115 23.7577L194.018 69.3789V160.621L115 206.242L35.9819 160.621V69.3789Z" stroke="#EC2227" stroke-width="2.24609"/>
</g>
<g clip-path="url(#clip0_17803_58838)">
<path fill-rule="evenodd" clip-rule="evenodd" d="M123.216 61.4901L117.118 57.9656L116.932 57.9073L116.719 57.8595L116.544 57.8329H116.305H116.082H115.854L115.621 57.8701L115.392 57.9232L115.164 57.9922L114.909 58.0612L114.676 58.162L114.426 58.2841L114.172 58.4221L80.7322 77.7374C79.0621 78.8178 77.7432 80.3617 76.9371 82.1801C76.2221 83.6012 75.8358 85.1649 75.8065 86.7555L75.833 163.719C75.833 165.014 76.0825 166.235 77.1175 167.127L83.2216 170.651C82.1865 169.765 81.953 168.528 81.9318 167.244V90.2799C81.9674 88.6914 82.3496 87.1298 83.0517 85.7045C83.8602 83.8876 85.1785 82.3443 86.8468 81.2618L120.286 61.9465L120.541 61.8032L120.796 61.6811L121.024 61.5856L121.274 61.5007L121.507 61.4317L121.741 61.3786L121.969 61.3414H122.197H122.404H122.632L122.839 61.368L123.025 61.4157L123.216 61.4901Z" fill="#FA2327"/>
<path fill-rule="evenodd" clip-rule="evenodd" d="M116.248 58.6296L114.772 59.033L114.565 59.1498L81.1679 78.4598C79.7401 79.3197 78.6361 80.6254 77.6541 82.5575C76.9994 83.8802 76.6374 85.3285 76.5926 86.8037L76.6563 163.688C76.7093 165.073 76.98 165.885 77.6701 166.485L81.2582 168.545C81.1781 168.111 81.1407 167.67 81.1467 167.228L81.0989 90.2645C81.1391 88.5545 81.5559 86.8745 82.3197 85.3441C83.4185 83.1042 84.7136 81.5861 86.4174 80.567L120.573 60.9067L116.248 58.6296ZM83.2433 171.459C83.0969 171.454 82.9536 171.416 82.824 171.347L76.7306 167.823C75.255 166.575 75.0692 164.983 75.048 163.73L75.0002 86.7719C75.0449 85.0643 75.4615 83.3869 76.221 81.8568C77.3251 79.6116 78.6149 78.0936 80.3134 77.0798L115.738 57.0267H116.269L117.081 57.1381C117.081 57.1381 117.309 57.2071 117.33 57.2124L123.594 60.8059C123.775 60.9061 123.911 61.0715 123.976 61.2686C124.04 61.4657 124.026 61.6797 123.939 61.8674C123.861 62.0528 123.716 62.202 123.533 62.2856C123.35 62.3692 123.143 62.3809 122.951 62.3186L122.325 62.2071L120.855 62.6105L120.648 62.6795L87.2667 81.9789C85.724 82.9663 84.513 84.3937 83.79 86.0766C83.1215 87.3942 82.7587 88.8456 82.7285 90.3229V167.25C82.7709 168.635 83.0469 169.447 83.7423 170.036C83.8938 170.172 83.9913 170.358 84.0167 170.56C84.042 170.762 83.9936 170.966 83.8803 171.135C83.8055 171.234 83.7094 171.314 83.599 171.37C83.4887 171.426 83.3671 171.457 83.2433 171.459V171.459Z" fill="#AD181B"/>
<path fill-rule="evenodd" clip-rule="evenodd" d="M86.8791 170.588L120.319 151.273C123.031 149.707 125.244 145.657 125.244 142.25L125.191 65.2909C125.191 61.8833 122.988 60.3918 120.271 61.9629L86.8313 81.2782C84.119 82.844 81.9162 86.8939 81.9162 90.3015V167.265C81.9534 170.631 84.1561 172.133 86.8791 170.588Z" fill="#FA2327"/>
<path fill-rule="evenodd" clip-rule="evenodd" d="M122.32 62.1536C121.731 62.1863 121.161 62.369 120.664 62.6844L87.2665 81.9785C84.8037 83.3904 82.7336 87.2014 82.7336 90.2959V167.26C82.7336 168.677 83.1689 169.739 83.9332 170.174C84.5702 170.551 85.4725 170.445 86.4385 169.882L119.878 150.567C122.341 149.149 124.416 145.349 124.416 142.249L124.363 65.2906C124.363 63.8681 123.949 62.8118 123.19 62.3766C122.922 62.2285 122.621 62.1518 122.314 62.1536H122.32ZM84.8302 172.026C84.2392 172.031 83.6572 171.881 83.1423 171.591C81.8631 170.853 81.1466 169.277 81.1466 167.26L81.0988 90.2959C81.0988 86.6282 83.4927 82.2704 86.4385 80.5719L119.857 61.246C121.359 60.3755 122.824 60.28 123.997 60.9488C125.292 61.6865 125.998 63.263 125.998 65.28V142.212C125.998 145.88 123.625 150.248 120.69 151.947L87.2506 171.257C86.5214 171.709 85.6876 171.965 84.8302 172V172.026Z" fill="#AD181B"/>
<path fill-rule="evenodd" clip-rule="evenodd" d="M125.223 141.299L125.191 65.2909C125.191 61.8833 122.988 60.3918 120.271 61.9629L86.8313 81.2782C84.119 82.844 81.9162 86.8939 81.9162 90.3015V166.299L125.223 141.299Z" fill="white"/>
<path fill-rule="evenodd" clip-rule="evenodd" d="M122.32 62.1536C121.731 62.1862 121.161 62.3689 120.664 62.6844L87.2665 81.9784C84.8037 83.3903 82.7336 87.2014 82.7336 90.2958V164.882L124.416 140.864L124.363 65.2905C124.363 63.868 123.949 62.8118 123.19 62.3765C122.922 62.2285 122.621 62.1517 122.314 62.1536H122.32ZM81.9534 167.116C81.8069 167.112 81.6634 167.074 81.5341 167.005C81.4121 166.932 81.312 166.827 81.2439 166.702C81.1758 166.577 81.1422 166.436 81.1466 166.294L81.0988 90.2958C81.0988 86.6281 83.4927 82.2704 86.4385 80.5718L119.857 61.2459C121.359 60.3755 122.824 60.2693 123.997 60.9593C125.292 61.6865 125.998 63.2629 125.998 65.2799V141.288C126.001 141.431 125.967 141.572 125.898 141.697C125.829 141.822 125.728 141.926 125.605 142L82.3674 167.005C82.24 167.074 82.0982 167.112 81.9534 167.116V167.116Z" fill="#AD181B"/>
<path fill-rule="evenodd" clip-rule="evenodd" d="M76.9796 82.1221V82.1964C76.2646 83.6176 75.8783 85.1812 75.849 86.7718L75.8755 163.736C75.8755 165.031 76.125 166.262 77.16 167.143L83.2641 170.668C82.229 169.781 81.9955 168.545 81.9743 167.26V90.2962C81.9982 88.7062 82.3811 87.1422 83.0942 85.7209V85.6465L76.9796 82.1221Z" fill="#D41E21"/>
<path fill-rule="evenodd" clip-rule="evenodd" d="M77.3726 83.2794C76.9089 84.3944 76.6569 85.5859 76.6295 86.7932L76.656 163.688C76.7091 165.073 76.9798 165.886 77.6698 166.485L81.2579 168.545C81.1778 168.111 81.1405 167.67 81.1464 167.228L81.0987 90.2645C81.1365 88.7774 81.4572 87.3111 82.0435 85.9439L77.3726 83.2475V83.2794ZM83.243 171.459C83.0966 171.454 82.9533 171.416 82.8237 171.347L76.7303 167.823C75.2547 166.576 75.0689 164.983 75.0477 163.731L74.9999 86.7719C75.0416 85.0622 75.4584 83.3825 76.2207 81.8515C76.2699 81.7391 76.3427 81.6387 76.4344 81.5572C76.526 81.4756 76.6342 81.4149 76.7515 81.3791C76.8554 81.341 76.966 81.3245 77.0765 81.3309C77.187 81.3373 77.295 81.3664 77.3938 81.4163L83.4925 84.9407C83.6711 85.0436 83.8039 85.2104 83.864 85.4076C83.9242 85.6047 83.9071 85.8173 83.8163 86.0023C83.1531 87.3427 82.7908 88.8119 82.7547 90.307V167.228C82.7972 168.614 83.0732 169.426 83.7685 170.015C83.9201 170.151 84.0176 170.337 84.0429 170.539C84.0683 170.74 84.0198 170.945 83.9065 171.114C83.8314 171.22 83.7319 171.307 83.6165 171.367C83.5012 171.427 83.3731 171.458 83.243 171.459V171.459Z" fill="#AD181B"/>
<path fill-rule="evenodd" clip-rule="evenodd" d="M79.0021 116.055C78.7863 116.055 78.5791 115.969 78.426 115.817C78.2729 115.665 78.1861 115.459 78.1847 115.243V107.504C78.1756 107.391 78.1899 107.278 78.2268 107.171C78.2636 107.065 78.3221 106.967 78.3987 106.884C78.4752 106.801 78.5681 106.735 78.6715 106.689C78.7749 106.644 78.8866 106.621 78.9995 106.621C79.1124 106.621 79.224 106.644 79.3274 106.689C79.4308 106.735 79.5237 106.801 79.6003 106.884C79.6768 106.967 79.7354 107.065 79.7722 107.171C79.809 107.278 79.8233 107.391 79.8142 107.504V115.243C79.8142 115.458 79.7287 115.665 79.5764 115.817C79.4241 115.969 79.2175 116.055 79.0021 116.055V116.055Z" fill="#AD181B"/>
<path fill-rule="evenodd" clip-rule="evenodd" d="M79.0021 103.242C78.7848 103.241 78.5769 103.153 78.4238 102.999C78.2706 102.845 78.1847 102.637 78.1847 102.419V94.6857C78.2012 94.481 78.2942 94.29 78.4452 94.1507C78.5962 94.0115 78.794 93.9341 78.9994 93.9341C79.2048 93.9341 79.4027 94.0115 79.5537 94.1507C79.7046 94.29 79.7976 94.481 79.8142 94.6857V102.419C79.8142 102.636 79.729 102.843 79.577 102.997C79.425 103.151 79.2184 103.239 79.0021 103.242V103.242Z" fill="#AD181B"/>
<path fill-rule="evenodd" clip-rule="evenodd" d="M101.306 159.532C101.165 159.532 101.026 159.494 100.905 159.422C100.783 159.35 100.683 159.247 100.616 159.123C100.562 159.031 100.526 158.928 100.512 158.822C100.498 158.716 100.504 158.607 100.532 158.504C100.56 158.4 100.608 158.303 100.673 158.218C100.738 158.133 100.82 158.062 100.913 158.008L107.611 154.134C107.703 154.08 107.805 154.045 107.91 154.031C108.016 154.016 108.123 154.023 108.226 154.051C108.329 154.079 108.425 154.126 108.509 154.192C108.593 154.257 108.663 154.338 108.716 154.431C108.823 154.618 108.853 154.841 108.797 155.05C108.741 155.259 108.605 155.437 108.418 155.546L101.714 159.442C101.588 159.507 101.448 159.538 101.306 159.532V159.532Z" fill="#AD181B"/>
<path fill-rule="evenodd" clip-rule="evenodd" d="M118.795 66.3841C118.538 66.5654 118.326 66.8032 118.175 67.0792C118.024 67.3553 117.938 67.6622 117.925 67.9765V67.9765C117.925 68.5816 118.317 68.847 118.795 68.571C119.059 68.3943 119.277 68.1582 119.433 67.8816C119.589 67.605 119.678 67.2957 119.692 66.9786V66.9786C119.692 66.3788 119.283 66.1081 118.795 66.3841Z" fill="#FA2327"/>
<path fill-rule="evenodd" clip-rule="evenodd" d="M118.429 69.5158C118.212 69.52 117.999 69.4629 117.813 69.3513C117.587 69.2084 117.403 69.0075 117.28 68.7695C117.158 68.5314 117.102 68.2649 117.118 67.9978C117.13 67.5359 117.254 67.0839 117.478 66.6801C117.703 66.2762 118.022 65.9326 118.407 65.6782C118.615 65.5453 118.855 65.4707 119.101 65.4623C119.348 65.4539 119.592 65.512 119.809 65.6305C120.034 65.7741 120.217 65.9752 120.34 66.213C120.462 66.4509 120.519 66.717 120.504 66.984C120.491 67.4451 120.368 67.8964 120.143 68.2994C119.919 68.7023 119.6 69.045 119.214 69.2982C118.977 69.4418 118.706 69.5171 118.429 69.5158V69.5158Z" fill="#AD181B"/>
<path fill-rule="evenodd" clip-rule="evenodd" d="M110.424 120.307C110.281 120.305 110.14 120.267 110.014 120.197C109.889 120.126 109.784 120.025 109.708 119.903C109.653 119.811 109.617 119.708 109.602 119.602C109.588 119.496 109.594 119.387 109.622 119.283C109.65 119.18 109.698 119.082 109.764 118.997C109.829 118.912 109.912 118.841 110.005 118.789L116.592 115.015C116.779 114.909 117 114.882 117.207 114.938C117.413 114.995 117.589 115.131 117.696 115.317C117.751 115.41 117.786 115.512 117.801 115.618C117.815 115.724 117.808 115.832 117.779 115.936C117.751 116.039 117.703 116.136 117.636 116.22C117.57 116.305 117.488 116.375 117.394 116.427L110.839 120.201C110.713 120.273 110.57 120.309 110.424 120.307V120.307Z" fill="#AD181B"/>
<path fill-rule="evenodd" clip-rule="evenodd" d="M110.424 133.3C110.28 133.299 110.138 133.261 110.013 133.189C109.887 133.118 109.782 133.015 109.708 132.892C109.653 132.799 109.617 132.697 109.602 132.59C109.588 132.484 109.594 132.375 109.622 132.272C109.65 132.168 109.698 132.071 109.764 131.986C109.829 131.901 109.912 131.83 110.005 131.777L116.592 127.998C116.78 127.895 116.999 127.869 117.205 127.925C117.412 127.982 117.588 128.116 117.696 128.3C117.75 128.393 117.785 128.496 117.799 128.602C117.813 128.709 117.806 128.817 117.778 128.921C117.75 129.024 117.701 129.121 117.635 129.206C117.569 129.291 117.487 129.362 117.394 129.415L110.839 133.189C110.713 133.262 110.57 133.301 110.424 133.3Z" fill="#AD181B"/>
<path fill-rule="evenodd" clip-rule="evenodd" d="M87.5211 88.3165C87.3418 88.3146 87.168 88.2543 87.0262 88.1446C86.8844 88.0349 86.7823 87.8819 86.7354 87.7088C86.6885 87.5358 86.6995 87.3522 86.7666 87.1859C86.8337 87.0196 86.9532 86.8798 87.1071 86.7878L89.0391 85.6625C89.1311 85.6093 89.2326 85.5748 89.338 85.561C89.4433 85.5471 89.5503 85.5542 89.6529 85.5818C89.7555 85.6094 89.8516 85.657 89.9357 85.7219C90.0199 85.7868 90.0904 85.8676 90.1432 85.9598C90.1991 86.0524 90.2362 86.1552 90.2523 86.2622C90.2684 86.3693 90.2632 86.4784 90.2371 86.5834C90.211 86.6884 90.1644 86.7873 90.1 86.8743C90.0356 86.9613 89.9547 87.0347 89.8619 87.0903L87.9245 88.1997C87.8032 88.2747 87.6637 88.3151 87.5211 88.3165V88.3165Z" fill="#AD181B"/>
<path fill-rule="evenodd" clip-rule="evenodd" d="M91.3642 86.0871C91.2206 86.0867 91.0798 86.0468 90.9572 85.972C90.8346 85.8971 90.7349 85.7901 90.6689 85.6625C90.615 85.5696 90.58 85.4669 90.566 85.3604C90.552 85.2539 90.5593 85.1457 90.5875 85.042C90.6156 84.9383 90.664 84.8413 90.7299 84.7564C90.7959 84.6716 90.8779 84.6007 90.9714 84.5478L92.9088 83.4385C93.0968 83.3322 93.3192 83.3049 93.5272 83.3627C93.7353 83.4204 93.9119 83.5584 94.0182 83.7463C94.1244 83.9343 94.1517 84.1567 94.094 84.3648C94.0363 84.5728 93.8982 84.7494 93.7103 84.8557L91.7729 85.9756C91.6491 86.0485 91.508 86.087 91.3642 86.0871V86.0871Z" fill="#AD181B"/>
<path fill-rule="evenodd" clip-rule="evenodd" d="M95.2281 83.8685C95.0488 83.8678 94.8747 83.8081 94.7326 83.6987C94.5906 83.5893 94.4885 83.4362 94.442 83.263C94.3955 83.0898 94.4073 82.9061 94.4755 82.7402C94.5437 82.5744 94.6645 82.4356 94.8194 82.3452L96.7621 81.2359C96.9494 81.1358 97.1681 81.1121 97.3725 81.1696C97.577 81.2272 97.7512 81.3615 97.8588 81.5446C97.9665 81.7276 97.9992 81.9452 97.9501 82.1518C97.901 82.3584 97.7739 82.538 97.5954 82.653L95.6474 83.7571C95.5203 83.8313 95.3754 83.8698 95.2281 83.8685V83.8685Z" fill="#AD181B"/>
<path fill-rule="evenodd" clip-rule="evenodd" d="M89.2886 129.935C89.1453 129.932 89.005 129.893 88.8807 129.822C88.7564 129.75 88.6521 129.649 88.5773 129.527C88.4785 129.335 88.4569 129.112 88.5172 128.905C88.5774 128.697 88.7148 128.521 88.9011 128.412L92.192 126.528C92.3796 126.424 92.6005 126.398 92.807 126.456C93.0135 126.513 93.1891 126.65 93.296 126.836C93.3508 126.928 93.3865 127.03 93.4012 127.136C93.4159 127.242 93.4092 127.35 93.3815 127.453C93.3538 127.556 93.3056 127.653 93.2399 127.738C93.1742 127.822 93.0922 127.893 92.9988 127.945L89.7079 129.824C89.5786 129.893 89.4351 129.931 89.2886 129.935V129.935Z" fill="#AD181B"/>
<path fill-rule="evenodd" clip-rule="evenodd" d="M89.2886 142.924C89.1435 142.923 89.0011 142.884 88.8761 142.81C88.7511 142.737 88.648 142.631 88.5773 142.504C88.4801 142.313 88.4594 142.092 88.5196 141.885C88.5797 141.679 88.7161 141.504 88.9011 141.395L92.192 139.516C92.3785 139.426 92.5919 139.411 92.7893 139.473C92.9867 139.535 93.1534 139.669 93.2557 139.849C93.358 140.028 93.3884 140.24 93.3407 140.441C93.293 140.643 93.1708 140.818 92.9988 140.933L89.7079 142.817C89.5782 142.885 89.4347 142.921 89.2886 142.924V142.924Z" fill="#AD181B"/>
<path fill-rule="evenodd" clip-rule="evenodd" d="M89.2889 103.959C89.1457 103.958 89.0052 103.92 88.8807 103.849C88.7562 103.779 88.6519 103.677 88.5776 103.555C88.4811 103.365 88.458 103.145 88.5128 102.939C88.5676 102.732 88.6965 102.553 88.8748 102.435L92.171 100.556C92.3603 100.449 92.5839 100.42 92.7941 100.476C93.0044 100.531 93.1846 100.667 93.2963 100.853C93.3513 100.946 93.3872 101.049 93.402 101.156C93.4169 101.263 93.4102 101.371 93.3826 101.476C93.3549 101.58 93.3067 101.678 93.2409 101.763C93.175 101.849 93.0928 101.92 92.999 101.973L89.7082 103.847C89.5808 103.921 89.436 103.959 89.2889 103.959V103.959Z" fill="#AD181B"/>
<path fill-rule="evenodd" clip-rule="evenodd" d="M89.289 116.947C89.1452 116.946 89.0042 116.908 88.8796 116.836C88.7549 116.765 88.651 116.662 88.5777 116.538C88.4802 116.346 88.4593 116.124 88.5195 115.917C88.5796 115.71 88.7162 115.534 88.9015 115.424L92.1924 113.545C92.3796 113.438 92.6016 113.409 92.8097 113.466C93.0177 113.523 93.1947 113.66 93.3017 113.847C93.4087 114.034 93.4369 114.256 93.3802 114.464C93.3234 114.672 93.1864 114.849 92.9992 114.956L89.7083 116.841C89.5796 116.911 89.4354 116.947 89.289 116.947Z" fill="#AD181B"/>
<path fill-rule="evenodd" clip-rule="evenodd" d="M110.425 94.3405C110.28 94.3393 110.138 94.3012 110.013 94.2296C109.888 94.1581 109.783 94.0555 109.708 93.9318C109.654 93.8374 109.62 93.7331 109.607 93.6251C109.594 93.5172 109.603 93.4077 109.633 93.3033C109.663 93.1988 109.714 93.1015 109.783 93.0171C109.851 92.9327 109.936 92.8629 110.032 92.8118L116.619 89.0379C116.711 88.9642 116.819 88.9116 116.933 88.8837C117.048 88.8557 117.168 88.8532 117.284 88.8762C117.399 88.8993 117.509 88.9473 117.604 89.017C117.7 89.0867 117.779 89.1763 117.836 89.2797C117.893 89.3831 117.927 89.4978 117.935 89.6156C117.944 89.7335 117.926 89.8517 117.884 89.9621C117.842 90.0725 117.776 90.1724 117.692 90.2548C117.607 90.3372 117.505 90.4001 117.394 90.4392L110.839 94.229C110.712 94.3003 110.57 94.3386 110.425 94.3405V94.3405Z" fill="#AD181B"/>
<path fill-rule="evenodd" clip-rule="evenodd" d="M110.424 107.329C110.278 107.325 110.134 107.282 110.009 107.206C109.883 107.13 109.78 107.022 109.708 106.894C109.653 106.801 109.617 106.699 109.602 106.592C109.588 106.486 109.594 106.378 109.622 106.274C109.65 106.17 109.698 106.073 109.764 105.988C109.829 105.903 109.912 105.832 110.005 105.779L116.592 102.005C116.778 101.899 116.999 101.871 117.205 101.926C117.412 101.982 117.589 102.117 117.696 102.302C117.75 102.396 117.785 102.499 117.799 102.606C117.813 102.713 117.806 102.821 117.778 102.925C117.75 103.029 117.702 103.127 117.636 103.212C117.57 103.297 117.487 103.369 117.394 103.422L110.839 107.212C110.713 107.287 110.57 107.328 110.424 107.329V107.329Z" fill="#AD181B"/>
<path fill-rule="evenodd" clip-rule="evenodd" d="M118.636 86.2145L96.6611 98.9109V107.754L118.636 95.0627V86.2145Z" fill="white"/>
<path fill-rule="evenodd" clip-rule="evenodd" d="M97.4683 99.3829V106.363L117.835 94.5899V87.6313L97.4683 99.3829ZM96.6615 108.565C96.4437 108.567 96.2341 108.482 96.0781 108.33C95.9222 108.178 95.8323 107.971 95.8282 107.753V98.9317C95.8268 98.7867 95.8633 98.6438 95.934 98.5172C96.0048 98.3906 96.1073 98.2847 96.2316 98.2098L118.243 85.5081C118.368 85.4403 118.507 85.4048 118.649 85.4048C118.791 85.4048 118.931 85.4403 119.055 85.5081C119.175 85.579 119.276 85.6788 119.347 85.7984C119.418 85.9181 119.459 86.0537 119.464 86.1929V95.0623C119.459 95.2016 119.419 95.3374 119.348 95.4571C119.276 95.5768 119.176 95.6765 119.055 95.747L97.0755 108.454C96.95 108.528 96.807 108.566 96.6615 108.565V108.565Z" fill="#AD181B"/>
<path fill-rule="evenodd" clip-rule="evenodd" d="M118.636 99.2026L96.6611 111.904V120.747L118.636 108.04V99.2026Z" fill="white"/>
<path fill-rule="evenodd" clip-rule="evenodd" d="M97.4683 112.372V119.33L117.834 107.573V100.62L97.4683 112.372ZM96.6615 121.565C96.5149 121.561 96.3712 121.523 96.2421 121.453C96.1189 121.381 96.0163 121.278 95.9438 121.154C95.8714 121.031 95.8316 120.891 95.8281 120.747V111.905C95.8295 111.761 95.8685 111.62 95.9411 111.497C96.0138 111.373 96.1175 111.27 96.2421 111.199L118.243 98.5023C118.367 98.432 118.507 98.3951 118.649 98.3951C118.792 98.3951 118.931 98.432 119.055 98.5023C119.18 98.5721 119.283 98.6739 119.355 98.7971C119.427 98.9202 119.464 99.0603 119.464 99.2029V108.04C119.464 108.184 119.426 108.325 119.355 108.448C119.283 108.572 119.18 108.675 119.055 108.746L97.0755 121.453C96.948 121.522 96.8063 121.561 96.6615 121.565V121.565Z" fill="#AD181B"/>
<path fill-rule="evenodd" clip-rule="evenodd" d="M118.636 112.197L96.6611 124.893V133.73L118.636 121.034V112.197Z" fill="white"/>
<path fill-rule="evenodd" clip-rule="evenodd" d="M97.4683 125.365V132.318L117.834 120.562V113.608L97.4683 125.365ZM96.6615 134.542C96.4437 134.544 96.2341 134.459 96.0781 134.307C95.9221 134.155 95.8323 133.948 95.8281 133.73V124.893C95.8295 124.749 95.8685 124.608 95.9411 124.485C96.0138 124.361 96.1175 124.258 96.2421 124.187L118.243 111.49C118.366 111.418 118.506 111.379 118.649 111.379C118.792 111.379 118.932 111.418 119.055 111.49C119.179 111.562 119.282 111.665 119.354 111.789C119.426 111.913 119.464 112.053 119.464 112.196V121.034C119.467 121.18 119.431 121.324 119.359 121.451C119.287 121.578 119.182 121.683 119.055 121.756L97.0755 134.431C96.9499 134.505 96.807 134.543 96.6615 134.542V134.542Z" fill="#AD181B"/>
<path fill-rule="evenodd" clip-rule="evenodd" d="M118.636 125.18L96.6611 137.881V146.719L118.636 134.022V125.18Z" fill="white"/>
<path fill-rule="evenodd" clip-rule="evenodd" d="M97.4678 138.343V145.312L117.834 133.55V126.591L97.4678 138.343ZM96.6611 147.536C96.5145 147.532 96.3708 147.494 96.2417 147.425C96.1171 147.353 96.0134 147.251 95.9407 147.127C95.8681 147.003 95.8291 146.862 95.8277 146.719V137.881C95.825 137.734 95.8608 137.589 95.9316 137.461C96.0024 137.332 96.1057 137.225 96.2311 137.149L118.232 124.452C118.356 124.382 118.496 124.345 118.638 124.345C118.781 124.345 118.92 124.382 119.044 124.452C119.167 124.525 119.269 124.628 119.341 124.752C119.412 124.875 119.451 125.015 119.453 125.158V134.001C119.451 134.145 119.413 134.285 119.342 134.41C119.27 134.535 119.168 134.639 119.044 134.712L97.0751 147.425C96.9476 147.493 96.8059 147.532 96.6611 147.536V147.536Z" fill="#AD181B"/>
<path d="M121.179 157.164C117.346 157.164 115.149 155.158 115.149 151.665V116.803C115 117.414 114.873 117.934 114.783 118.29C114.252 120.413 111.938 122.992 106.98 123.815C106.142 123.964 105.294 124.042 104.443 124.049C102.707 124.049 101.486 123.635 100.818 122.817C100.603 122.552 100.451 122.241 100.372 121.908C100.294 121.575 100.292 121.229 100.366 120.896C100.637 119.585 105.345 98.8682 107.967 91.5912C109.448 87.4086 116.677 81.4426 119.873 78.8152C120.053 78.4861 120.239 78.1304 120.404 77.7536C120.423 77.7129 120.447 77.6738 120.473 77.6368C121.47 75.6676 122.32 73.6506 122.638 72.8597C122.638 72.8279 122.755 72.5784 122.755 72.5784C123.986 70.0625 126.539 67.6368 130.6 65.0997C134.146 62.881 138.748 61.1453 141.078 61.1453C141.427 61.1381 141.775 61.1901 142.107 61.2992C142.317 61.3131 142.515 61.3973 142.67 61.5381C142.721 61.5752 142.769 61.616 142.813 61.6602C142.914 61.7877 143 61.9266 143.068 62.0742C143.707 63.027 144.453 63.9033 145.292 64.6857L145.372 64.7493C147.264 63.7156 149.389 63.1804 151.545 63.1941C153.997 63.1941 155.791 63.9532 156.678 65.3173C158.334 68.0031 160.722 74.3831 163.785 84.2716L163.96 84.8024C164.761 87.382 163.355 90.6411 160.451 92.9341C159.003 94.1203 157.215 94.8154 155.345 94.9192C154.257 94.9192 153.445 94.5476 153.063 93.8895V131.851C153.063 136.703 153.063 141.289 138.864 150.137C131.55 154.749 125.425 157.164 121.179 157.164Z" fill="#FA2327"/>
<path d="M130.86 67.3499C128.206 68.8839 124.49 70.8797 123.466 73.1143C122.601 75.0463 125.791 79.1599 132.022 77.541C132.68 77.5092 133.742 77.7533 135.207 76.92C136.672 76.0867 136.852 75.2693 136.852 75.2693C143.079 69.696 143.11 63.1886 142.24 62.2916C141.194 61.2459 133.514 65.8213 130.86 67.3499Z" fill="#D41E21"/>
<path d="M139.973 65.4342C140.249 64.3948 140.391 63.3247 140.398 62.2495V62.0637C138.084 62.3716 134.182 63.9109 131.077 65.8482C128.968 67.096 127.038 68.6245 125.34 70.3917L125.297 72.9501C125.263 73.5136 125.414 74.0727 125.727 74.5425C128.275 70.9331 135.021 66.3737 139.973 65.4342Z" fill="white"/>
<path d="M145.377 65.8319C145.157 65.688 144.947 65.5284 144.75 65.3542C144.681 65.3011 144.618 65.2321 144.549 65.1685C144.251 64.8928 143.968 64.6023 143.699 64.298C143.217 63.7408 142.765 63.1578 142.346 62.5517L142.144 62.2491V62.212C142.144 63.2277 142.034 64.2403 141.815 65.2321C141.757 65.5241 141.677 65.8054 141.603 66.092C141.529 66.3786 141.475 66.6865 141.391 66.9678C140.376 69.9708 138.843 72.7731 136.863 75.2481L138.349 79.3351C146.183 72.5623 145.377 65.8319 145.377 65.8319Z" fill="white"/>
<path d="M126.348 77.0158C126.086 76.9196 125.832 76.8025 125.589 76.6655C124.929 76.3075 124.388 75.766 124.03 75.1066C123.672 74.4471 123.513 73.698 123.572 72.95V72.95L123.466 73.2048C123.333 73.5233 123.084 74.1177 122.755 74.8768C122.606 75.2112 122.447 75.5721 122.272 75.9383C121.948 76.6496 121.587 77.4086 121.21 78.1623C120.998 78.5923 120.78 79.0063 120.568 79.3884C121.613 80.4974 122.877 81.3761 124.281 81.9684C125.685 82.5606 127.197 82.8534 128.721 82.8279C130.053 82.8203 131.377 82.6219 132.654 82.2388L133.009 80.8375L133.901 76.8725C132.422 77.2475 130.904 77.447 129.379 77.467C128.35 77.4854 127.326 77.333 126.348 77.0158V77.0158Z" fill="white"/>
<path d="M164.798 84.6009L164.623 84.0701C161.497 73.9852 159.14 67.7113 157.426 64.93C156.401 63.2845 154.321 62.3822 151.587 62.3822C149.499 62.3842 147.438 62.8502 145.552 63.7463C145.494 63.6826 145.435 63.6296 145.371 63.5712L145.17 63.3695C145.021 63.2049 144.873 63.0404 144.735 62.8705L144.655 62.775C144.321 62.3663 144.034 61.9682 143.822 61.6656C143.773 61.5571 143.716 61.4524 143.652 61.3525V61.3525C143.594 61.2653 143.528 61.1836 143.455 61.1083V61.1083C143.329 60.976 143.182 60.8649 143.02 60.7792C142.96 60.741 142.896 60.709 142.829 60.6837V60.6837H142.76C142.658 60.6331 142.551 60.5922 142.442 60.5616C142.388 60.5616 142.309 60.5616 142.25 60.5298C142.192 60.4979 142.091 60.4714 142.001 60.4555C141.754 60.3931 141.502 60.354 141.247 60.3387H141.184C140.917 60.3457 140.651 60.367 140.387 60.4024C140.329 60.4024 140.244 60.4342 140.186 60.4448C139.591 60.5285 139.003 60.649 138.423 60.8058L137.893 60.9544C137.219 61.1508 136.513 61.3896 135.77 61.671L135.281 61.8673C134.506 62.1805 133.721 62.5308 132.94 62.9289L132.633 63.0882C131.794 63.5181 130.961 63.9746 130.175 64.4629C129.225 65.0574 128.37 65.6412 127.58 66.2198L127.526 66.2623C126.79 66.8006 126.081 67.3764 125.403 67.9873V67.9873C125.133 68.2368 124.873 68.4809 124.639 68.7251L124.549 68.81C124.443 68.9215 124.336 69.0276 124.236 69.1391C123.811 69.599 123.416 70.0847 123.052 70.5935L122.824 70.8005C122.526 71.233 122.258 71.6852 122.022 72.154C121.98 72.2283 121.943 72.3026 121.911 72.3716C121.871 72.4661 121.839 72.5638 121.815 72.6635L121.688 72.9661L121.608 73.1465C121.55 73.2952 121.476 73.465 121.401 73.6402C121.327 73.8153 121.263 73.948 121.194 74.1126L120.971 74.6434C120.812 74.9937 120.642 75.3652 120.44 75.7527L119.639 77.3769C119.49 77.6848 119.336 77.9661 119.183 78.2474C113.949 82.5627 108.524 87.43 107.128 91.2729C104.474 98.6455 99.8088 119.197 99.4957 120.7C99.3924 121.161 99.3952 121.639 99.5037 122.099C99.6122 122.558 99.8236 122.987 100.122 123.354C100.961 124.41 102.41 124.941 104.416 124.941C105.306 124.929 106.194 124.846 107.07 124.691C110.939 124.049 113.068 122.499 114.236 121.076V151.692C114.236 155.673 116.81 158.062 121.136 158.062C125.568 158.062 131.852 155.604 139.315 150.96C152.925 142.467 153.933 137.929 153.922 131.942V95.62C154.383 95.7649 154.863 95.8365 155.345 95.8323C157.41 95.7351 159.389 94.9737 160.987 93.6614C164.172 91.1614 165.706 87.5202 164.798 84.6009ZM138.317 79.3567L136.831 75.2697C138.808 72.7939 140.337 69.9917 141.348 66.9894C141.433 66.7081 141.486 66.4056 141.56 66.1136C141.635 65.8217 141.714 65.5457 141.773 65.2538C141.992 64.2637 142.102 63.2528 142.102 62.2389V62.2389V62.2761L142.304 62.5786L142.33 62.6158C142.452 62.7909 142.622 63.0245 142.813 63.2792L142.935 63.4332C143.116 63.672 143.317 63.9162 143.54 64.1763L143.657 64.3249L143.737 64.4045C143.949 64.6434 144.167 64.8663 144.4 65.0839C144.437 65.1211 144.469 65.1635 144.506 65.1954C144.543 65.2272 144.639 65.3281 144.708 65.3811C144.905 65.5553 145.114 65.7149 145.334 65.8589C145.334 65.8589 146.184 72.5627 138.317 79.3567ZM121.178 78.1518C121.545 77.43 121.879 76.724 122.192 76.0287L122.25 75.9119C122.298 75.8058 122.341 75.7155 122.383 75.6094C122.5 75.3493 122.611 75.1104 122.712 74.8822V74.8344C122.744 74.7548 122.765 74.7017 122.802 74.6274C122.925 74.3355 123.047 74.0648 123.142 73.8366L123.185 73.7304C123.27 73.5287 123.365 73.3111 123.413 73.1996L123.519 72.9448C123.46 73.6929 123.619 74.442 123.977 75.1014C124.335 75.7609 124.877 76.3024 125.536 76.6603C125.779 76.7973 126.033 76.9144 126.295 77.0107C127.267 77.3219 128.284 77.4707 129.305 77.4512C130.83 77.4312 132.348 77.2317 133.827 76.8567L132.935 80.8217L132.58 82.223C131.303 82.6061 129.979 82.8045 128.646 82.8121C127.123 82.8376 125.611 82.5449 124.207 81.9526C122.803 81.3603 121.538 80.4816 120.494 79.3727C120.759 78.9958 120.977 78.5818 121.178 78.1518ZM126.603 69.1285C126.89 68.8737 127.192 68.5977 127.516 68.3482L127.919 68.0298C128.248 67.775 128.593 67.499 128.981 67.2548L129.421 66.9417C129.952 66.5807 130.483 66.2145 131.083 65.8429C131.805 65.3918 132.569 64.9724 133.344 64.5744L133.625 64.431C134.352 64.0701 135.08 63.741 135.796 63.4491L136.242 63.2686C136.911 63.0032 137.553 62.7803 138.163 62.5892L138.694 62.4406C139.201 62.2979 139.715 62.1827 140.233 62.0956H140.414V62.2442C140.407 63.3194 140.265 64.3895 139.989 65.4289C135.037 66.3684 128.312 70.9279 125.738 74.5266C125.425 74.0568 125.274 73.4977 125.308 72.9342L125.35 70.3758C125.653 70.0468 125.987 69.707 126.348 69.3727L126.603 69.1285ZM133.413 75.1954C132.083 75.5297 130.718 75.7078 129.347 75.7262C128.602 75.7371 127.859 75.6442 127.139 75.4501C129.177 72.6635 134.926 68.5022 139.4 67.2973C138.455 69.7673 137.143 72.0809 135.509 74.1603L134.979 74.7761L133.413 75.1954ZM159.952 92.3079C158.655 93.3753 157.054 94.0052 155.377 94.1073C154.538 94.1073 153.928 93.8472 153.784 93.3323C153.37 92.0531 152.256 88.879 152.256 88.879V131.544C152.256 136.416 152.622 140.636 138.455 149.452C130.902 154.155 125.026 156.294 121.184 156.294C117.818 156.294 116.014 154.659 116.014 151.66V109.803C116.014 109.803 114.421 116.172 113.954 118.088C113.487 120.004 111.369 122.212 106.847 122.966C106.055 123.106 105.252 123.18 104.448 123.189C101.826 123.189 100.992 122.127 101.215 121.066C101.497 119.707 106.178 99.1019 108.779 91.8726C110.048 88.3642 115.785 83.3482 119.252 80.4608C120.458 81.7662 121.925 82.8029 123.558 83.5035C125.192 84.204 126.954 84.5526 128.731 84.5266C130.225 84.5166 131.71 84.295 133.142 83.8684L134.087 83.5977L134.331 82.6476L134.687 81.2463L135.589 77.2283L135.647 76.9629L136.709 79.9353L137.564 82.2814L139.453 80.6518C147.946 73.3429 147.134 65.9279 147.097 65.6147L147.006 64.9618C148.457 64.3901 150.001 64.0896 151.56 64.0754C153.45 64.0754 155.191 64.5637 155.961 65.8058C158.561 70.0521 162.447 82.8493 163.153 85.1158C163.859 87.3822 162.5 90.2962 159.926 92.3132L159.952 92.3079Z" fill="#AD181B"/>
</g>
<defs>
<filter id="filter0_dd_17803_58838" x="25.8744" y="13.4766" width="178.251" height="203.047" filterUnits="userSpaceOnUse" color-interpolation-filters="sRGB">
<feFlood flood-opacity="0" result="BackgroundImageFix"/>
<feColorMatrix in="SourceAlpha" type="matrix" values="0 0 0 0 0 0 0 0 0 0 0 0 0 0 0 0 0 0 127 0" result="hardAlpha"/>
<feOffset dx="-2.24609" dy="-2.24609"/>
<feGaussianBlur stdDeviation="3.36914"/>
<feColorMatrix type="matrix" values="0 0 0 0 1 0 0 0 0 1 0 0 0 0 1 0 0 0 1 0"/>
<feBlend mode="normal" in2="BackgroundImageFix" result="effect1_dropShadow_17803_58838"/>
<feColorMatrix in="SourceAlpha" type="matrix" values="0 0 0 0 0 0 0 0 0 0 0 0 0 0 0 0 0 0 127 0" result="hardAlpha"/>
<feOffset dx="2.24609" dy="2.24609"/>
<feGaussianBlur stdDeviation="3.36914"/>
<feColorMatrix type="matrix" values="0 0 0 0 0.682353 0 0 0 0 0.682353 0 0 0 0 0.752941 0 0 0 0.4 0"/>
<feBlend mode="normal" in2="effect1_dropShadow_17803_58838" result="effect2_dropShadow_17803_58838"/>
<feBlend mode="normal" in="SourceGraphic" in2="effect2_dropShadow_17803_58838" result="shape"/>
</filter>
<clipPath id="clip0_17803_58838">
<rect width="90.0584" height="115" fill="white" transform="translate(75 57)"/>
</clipPath>
</defs>
</svg>
