<svg width="230" height="230" viewBox="0 0 230 230" fill="none" xmlns="http://www.w3.org/2000/svg">
<rect width="230" height="230" fill="#F2F2F2"/>
<g filter="url(#filter0_dd_17803_58882)">
<path d="M115 22.4609L195.141 68.7305V161.27L115 207.539L34.8588 161.27V68.7305L115 22.4609Z" fill="#F2F2F2"/>
<path d="M35.9819 69.3789L115 23.7577L194.018 69.3789V160.621L115 206.242L35.9819 160.621V69.3789Z" stroke="#EC2227" stroke-width="2.24609"/>
</g>
<g clip-path="url(#clip0_17803_58882)">
<path fill-rule="evenodd" clip-rule="evenodd" d="M57.8239 82.2651L100.182 57.7318L102.866 59.4568V60.9901L110.149 65.3984L111.682 64.4401L114.366 66.1651V67.6984L121.649 72.1068L123.182 71.1484L125.866 72.6818V74.4068L133.149 78.6234L134.682 77.8568L137.366 79.3901V81.1151L144.649 85.3318L146.182 84.3734L148.866 86.0984V87.8234L156.149 92.0401L157.682 91.0818L160.366 92.8068V94.3401L167.649 98.7484L169.182 97.7901L172.057 99.3234L171.866 146.665L129.699 171.007L126.824 169.473V167.748L119.541 163.532L118.007 164.298L115.324 162.765V161.232L108.041 156.823L106.507 157.782L103.824 156.057V154.523L96.5405 150.307L95.0072 151.073L92.3239 149.54V147.815L85.0405 143.598L83.5072 144.365L80.8239 142.832V141.107L73.5405 136.89L72.0072 137.657L69.3239 136.123V134.398L61.8489 130.182L60.5072 131.14L57.8239 129.415V82.2651Z" fill="#D41E21"/>
<path fill-rule="evenodd" clip-rule="evenodd" d="M127.781 168.898L129.698 170.048L171.098 146.09V99.8985L169.181 98.7485L168.031 99.3235C167.84 99.5151 167.456 99.5151 167.265 99.3235L159.981 95.1068C159.598 94.9151 159.598 94.7235 159.598 94.3401V93.1901L157.681 92.0401L156.723 92.6151C156.34 92.8068 156.148 92.8068 155.765 92.6151L148.481 88.3985C148.29 88.2068 148.098 88.0151 148.098 87.6318V86.4818L146.181 85.3318L145.031 85.9068C144.84 86.0985 144.456 86.0985 144.265 85.9068L136.981 81.6901C136.598 81.4985 136.598 81.3068 136.598 80.9235V79.7735L134.681 78.6235L133.723 79.1985C133.34 79.3901 133.148 79.3901 132.765 79.1985L125.481 74.9818C125.098 74.7901 125.098 74.5985 125.098 74.2151V73.0651L123.181 71.9151L122.223 72.4901C121.84 72.6818 121.648 72.6818 121.265 72.4901L113.981 68.2735C113.79 68.0818 113.598 67.8901 113.598 67.5068V66.3568L111.681 65.2068L110.723 65.7818C110.34 65.9735 110.148 65.9735 109.765 65.7818L102.481 61.5651C102.29 61.3735 102.098 61.1818 102.098 60.7985V59.8401L100.373 58.6901L58.7814 82.6485V128.84L60.5064 129.99L61.4648 129.415C61.8481 129.223 62.0398 129.223 62.4231 129.415L69.7064 133.632C69.8981 133.823 70.0898 134.015 70.0898 134.398V135.548L72.0064 136.698L72.9648 136.123C73.1564 135.932 73.5398 135.932 73.9231 136.123L81.2064 140.34C81.5898 140.532 81.5898 140.723 81.5898 141.107V142.257L83.5064 143.407L84.4648 142.832C84.6564 142.64 85.0398 142.64 85.2314 142.832L92.5148 147.048C92.8981 147.24 92.8981 147.432 92.8981 147.815V148.965L94.8148 150.115L95.7731 149.54C96.1564 149.348 96.3481 149.348 96.7314 149.54L104.015 153.757C104.206 153.948 104.398 154.14 104.398 154.523V155.673L106.315 156.823L107.273 156.248C107.465 156.057 107.848 156.057 108.04 156.248L115.323 160.465C115.706 160.657 115.706 160.848 115.706 161.232V162.382L117.623 163.532L118.581 162.957C118.965 162.765 119.156 162.765 119.54 162.957L126.823 167.173C127.015 167.365 127.206 167.557 127.206 167.94L127.781 168.898ZM129.698 171.965C129.506 171.965 129.506 171.965 129.315 171.965C129.123 171.965 129.123 171.965 128.931 171.773L126.248 170.24C125.865 170.048 125.865 169.857 125.865 169.473V168.323L119.348 164.49L118.39 165.065C118.006 165.257 117.815 165.257 117.431 165.065L114.748 163.532C114.365 163.34 114.365 163.148 114.365 162.765V161.615L107.848 157.782L106.89 158.357C106.698 158.548 106.315 158.548 105.931 158.357L103.248 156.823C103.056 156.632 102.865 156.44 102.865 156.057V154.907L96.3481 151.073L95.3898 151.648C95.0064 151.84 94.8148 151.84 94.4314 151.648L91.7481 150.115C91.3648 149.923 91.3648 149.732 91.3648 149.348V148.39L84.8481 144.557L83.8898 145.132C83.5064 145.323 83.3148 145.323 82.9314 145.132L80.2481 143.598C79.8648 143.407 79.8648 143.215 79.8648 142.832V141.682L73.5398 137.848L72.3898 138.423C72.1981 138.615 71.8148 138.615 71.6231 138.423L68.9398 136.89C68.7481 136.698 68.5564 136.507 68.5564 136.123V134.973L62.0398 131.14L61.0814 131.715C60.8898 131.907 60.5064 131.907 60.1231 131.715L57.4398 130.182C57.0564 129.99 57.0564 129.798 57.0564 129.415V82.2651C57.0564 81.8818 57.2481 81.6901 57.4398 81.4985L99.7981 57.1568C100.181 56.9651 100.373 56.9651 100.565 57.1568L103.248 58.6901C103.631 58.8818 103.631 59.0735 103.631 59.4568V60.6068L110.148 64.4401L111.106 63.8651C111.298 63.6735 111.681 63.6735 112.065 63.8651L114.748 65.3985C115.131 65.5901 115.131 65.7818 115.131 66.1651V67.3151L121.648 71.1485L122.606 70.5735C122.99 70.3818 123.181 70.3818 123.565 70.5735L126.248 72.1068C126.631 72.2985 126.631 72.4901 126.631 72.8735V74.0235L133.148 77.8568L134.298 77.2818C134.49 77.0901 134.873 77.0901 135.256 77.2818L137.94 78.8151C138.131 79.0068 138.323 79.1985 138.323 79.5818V80.7318L144.648 84.5651L145.798 83.9901C146.181 83.7985 146.373 83.7985 146.756 83.9901L149.44 85.5235C149.823 85.7151 149.823 85.9068 149.823 86.2901V87.4401L156.34 91.2735L157.298 90.6985C157.681 90.5068 157.873 90.5068 158.256 90.6985L160.94 92.2318C161.131 92.4235 161.323 92.6151 161.323 92.9985V94.1485L167.648 97.9818L168.798 97.4068C169.181 97.2151 169.373 97.2151 169.756 97.4068L172.44 98.9401C172.631 99.1318 172.823 99.3235 172.823 99.7068V146.857C172.823 147.24 172.631 147.432 172.44 147.623L130.081 171.965C129.89 171.965 129.698 171.965 129.698 171.965Z" fill="#AD181B"/>
<path fill-rule="evenodd" clip-rule="evenodd" d="M57.8239 82.2651L141.966 130.757L171.866 113.507L172.057 99.3234L169.182 97.7901L167.649 98.7484L160.366 94.3401V92.8068L157.682 91.0817L156.149 92.0401L148.866 87.8234V86.0984L146.182 84.3734L144.649 85.3318L137.366 81.1151V79.3901L134.682 77.8568L133.149 78.6234L125.866 74.4068V72.6817L123.182 71.1484L121.649 72.1068L114.366 67.6984V66.1651L111.682 64.4401L110.149 65.3984L102.866 60.9901V59.4568L100.182 57.7318L57.8239 82.2651Z" fill="#FA2327"/>
<path fill-rule="evenodd" clip-rule="evenodd" d="M59.5481 82.2651L141.965 129.798L171.098 112.932V99.8985L169.181 98.7485L168.031 99.3235C167.84 99.5151 167.456 99.5151 167.265 99.3235L159.981 95.1068C159.598 94.9151 159.598 94.7235 159.598 94.3401V93.1901L157.681 92.0401L156.723 92.6151C156.34 92.8068 156.148 92.8068 155.765 92.6151L148.481 88.3985C148.29 88.2068 148.098 88.0151 148.098 87.6318V86.4818L146.181 85.3318L145.031 85.9068C144.84 86.0985 144.456 86.0985 144.265 85.9068L136.981 81.6901C136.598 81.4985 136.598 81.3068 136.598 80.9235V79.7735L134.681 78.6235L133.723 79.1985C133.34 79.3901 133.148 79.3901 132.765 79.1985L125.481 74.9818C125.098 74.7901 125.098 74.5985 125.098 74.2151V73.0651L123.181 71.9151L122.223 72.4901C121.84 72.6818 121.648 72.6818 121.265 72.4901L113.981 68.2735C113.79 68.0818 113.598 67.8901 113.598 67.5068V66.3568L111.681 65.2068L110.723 65.7818C110.34 65.9735 110.148 65.9735 109.765 65.7818L102.481 61.5651C102.29 61.3735 102.098 61.1818 102.098 60.7985V59.8401L100.373 58.6901L59.5481 82.2651ZM141.965 131.715C141.773 131.715 141.581 131.715 141.581 131.523L57.4398 83.0318C57.0564 82.8401 57.0564 82.6485 57.0564 82.2651C57.0564 81.8818 57.2481 81.6901 57.4398 81.4985L99.7981 57.1568C100.181 56.9651 100.373 56.9651 100.565 57.1568L103.248 58.6901C103.631 58.8818 103.631 59.0735 103.631 59.4568V60.6068L110.148 64.4401L111.106 63.8651C111.298 63.6735 111.681 63.6735 112.065 63.8651L114.748 65.3985C115.131 65.5901 115.131 65.7818 115.131 66.1651V67.3151L121.648 71.1485L122.606 70.5735C122.99 70.3818 123.181 70.3818 123.565 70.5735L126.248 72.1068C126.631 72.2985 126.631 72.4901 126.631 72.8735V74.0235L133.148 77.8568L134.298 77.2818C134.49 77.0901 134.873 77.0901 135.256 77.2818L137.94 78.8151C138.131 79.0068 138.323 79.1985 138.323 79.5818V80.7318L144.648 84.5651L145.798 83.9901C146.181 83.7985 146.373 83.7985 146.756 83.9901L149.44 85.5235C149.823 85.7151 149.823 85.9068 149.823 86.2901V87.4401L156.34 91.2735L157.298 90.6985C157.681 90.5068 157.873 90.5068 158.256 90.6985L160.94 92.2318C161.131 92.4235 161.323 92.6151 161.323 92.9985V94.1485L167.648 97.9818L168.798 97.4068C169.181 97.2151 169.373 97.2151 169.756 97.4068L172.44 98.9401C172.631 99.1318 172.823 99.3235 172.823 99.7068V113.89C172.823 114.273 172.631 114.465 172.44 114.657L142.54 131.907C142.348 131.715 142.156 131.715 141.965 131.715Z" fill="#AD181B"/>
<path fill-rule="evenodd" clip-rule="evenodd" d="M129.699 123.857L172.057 99.3239L171.866 146.666L129.699 171.007V123.857Z" fill="#FA2327"/>
<path fill-rule="evenodd" clip-rule="evenodd" d="M130.465 124.239V169.473L171.098 146.089V100.856L130.465 124.239ZM129.698 171.964C129.506 171.964 129.315 171.964 129.315 171.773C128.931 171.581 128.931 171.389 128.931 171.006V123.856C128.931 123.473 129.123 123.281 129.315 123.089L171.481 98.556C171.673 98.3644 172.056 98.3644 172.248 98.556C172.631 98.7477 172.631 98.9394 172.631 99.3227V146.473C172.631 146.856 172.44 147.048 172.248 147.239L129.89 171.581C129.89 171.964 129.698 171.964 129.698 171.964Z" fill="#AD181B"/>
<path fill-rule="evenodd" clip-rule="evenodd" d="M115.324 115.616L157.682 91.0825L160.366 92.8075L118.199 117.149L115.324 115.616Z" fill="#D41E21"/>
<path fill-rule="evenodd" clip-rule="evenodd" d="M117.047 115.616L118.006 116.191L158.639 92.8075L157.681 92.2325L117.047 115.616ZM118.197 118.108C118.006 118.108 117.814 118.108 117.814 117.916L115.131 116.383C114.939 116.191 114.747 115.999 114.747 115.616C114.747 115.233 114.939 115.041 115.131 114.849L157.489 90.5075C157.872 90.3159 158.064 90.3159 158.447 90.5075L161.131 92.0409C161.322 92.2325 161.514 92.4242 161.514 92.8075C161.514 93.1909 161.322 93.3825 161.131 93.5742L118.772 117.916C118.389 117.916 118.197 118.108 118.197 118.108Z" fill="#AD181B"/>
<path fill-rule="evenodd" clip-rule="evenodd" d="M115.324 115.616L118.199 117.149L118.007 164.299L115.324 162.766V115.616Z" fill="#D41E21"/>
<path fill-rule="evenodd" clip-rule="evenodd" d="M116.281 162.189L117.24 162.764V117.531L116.281 116.956V162.189ZM118.006 165.256C117.815 165.256 117.623 165.256 117.623 165.064L114.94 163.531C114.556 163.339 114.556 163.148 114.556 162.764V115.614C114.556 115.231 114.748 115.039 114.94 114.848C115.323 114.656 115.515 114.656 115.898 114.848L118.581 116.381C118.773 116.573 118.965 116.764 118.965 117.148V164.298C118.965 164.681 118.773 164.873 118.581 165.064C118.39 165.256 118.198 165.256 118.006 165.256Z" fill="#AD181B"/>
<path fill-rule="evenodd" clip-rule="evenodd" d="M103.824 108.908L146.182 84.3743L148.866 86.0993L106.507 110.441L103.824 108.908Z" fill="#D41E21"/>
<path fill-rule="evenodd" clip-rule="evenodd" d="M105.548 108.908L106.506 109.483L147.14 86.0992L146.181 85.5242L105.548 108.908ZM106.506 111.399C106.315 111.399 106.123 111.399 106.123 111.208L103.44 109.674C103.056 109.483 103.056 109.291 103.056 108.908C103.056 108.524 103.248 108.333 103.44 108.141L145.798 83.7992C146.181 83.6075 146.373 83.6075 146.756 83.7992L149.44 85.3325C149.823 85.5242 149.823 85.7159 149.823 86.0992C149.823 86.4825 149.631 86.6742 149.44 86.8659L107.081 111.208C106.89 111.399 106.698 111.399 106.506 111.399Z" fill="#AD181B"/>
<path fill-rule="evenodd" clip-rule="evenodd" d="M103.824 108.907L106.507 110.44V157.782L103.824 156.057V108.907Z" fill="#D41E21"/>
<path fill-rule="evenodd" clip-rule="evenodd" d="M104.782 155.673L105.741 156.248V111.014L104.782 110.439V155.673ZM106.507 158.548C106.316 158.548 106.124 158.548 105.932 158.356L103.249 156.823C102.866 156.631 102.866 156.439 102.866 156.056V108.906C102.866 108.523 103.057 108.331 103.249 108.139C103.632 107.948 103.824 107.948 104.207 108.139L106.891 109.673C107.274 109.864 107.274 110.056 107.274 110.439V157.589C107.274 157.973 107.082 158.164 106.891 158.356C106.891 158.548 106.699 158.548 106.507 158.548Z" fill="#AD181B"/>
<path fill-rule="evenodd" clip-rule="evenodd" d="M92.3239 102.198L134.682 77.8568L137.366 79.3901L95.0072 103.923L92.3239 102.198Z" fill="#D41E21"/>
<path fill-rule="evenodd" clip-rule="evenodd" d="M94.0481 102.199L95.0065 102.774L135.64 79.3908L134.681 78.8158L94.0481 102.199ZM95.0065 104.691C94.8148 104.691 94.6231 104.691 94.6231 104.499L91.9398 102.966C91.7481 102.774 91.5565 102.583 91.5565 102.199C91.5565 101.816 91.7481 101.624 91.9398 101.433L134.298 77.0908C134.49 76.8992 134.873 76.8992 135.065 77.0908L137.748 78.6242C137.94 78.8158 138.131 79.0075 138.131 79.3908C138.131 79.7742 137.94 79.9658 137.748 80.1575L95.3898 104.499C95.3898 104.691 95.1981 104.691 95.0065 104.691Z" fill="#AD181B"/>
<path fill-rule="evenodd" clip-rule="evenodd" d="M92.3239 102.199L95.0072 103.924V151.074L92.3239 149.541V102.199Z" fill="#D41E21"/>
<path fill-rule="evenodd" clip-rule="evenodd" d="M93.0898 148.966L94.0481 149.541V104.307L93.0898 103.732V148.966ZM95.0065 152.032C94.8148 152.032 94.6231 152.032 94.6231 151.841L91.9398 150.307C91.5565 150.116 91.5565 149.924 91.5565 149.541V102.391C91.5565 102.007 91.7481 101.816 91.9398 101.624C92.3231 101.432 92.5148 101.432 92.8981 101.624L95.5815 103.157C95.7731 103.349 95.9648 103.541 95.9648 103.924V151.074C95.9648 151.457 95.7731 151.649 95.5815 151.841C95.1981 151.841 95.1981 152.032 95.0065 152.032Z" fill="#AD181B"/>
<path fill-rule="evenodd" clip-rule="evenodd" d="M80.8239 95.6818L123.182 71.1485L125.866 72.6818L83.5072 97.2152L80.8239 95.6818Z" fill="#D41E21"/>
<path fill-rule="evenodd" clip-rule="evenodd" d="M82.5481 95.6826L83.5065 96.2576L124.14 72.8742L123.181 72.2992L82.5481 95.6826ZM83.5065 97.9826C83.3148 97.9826 83.1231 97.9826 83.1231 97.7909L80.4398 96.2576C80.0565 96.0659 80.0565 95.8742 80.0565 95.4909C80.0565 95.1076 80.2481 94.9159 80.4398 94.7242L122.798 70.3826C123.181 70.1909 123.373 70.1909 123.756 70.3826L126.44 71.9159C126.823 72.1076 126.823 72.2992 126.823 72.6826C126.823 73.0659 126.631 73.2576 126.44 73.4492L84.0815 97.7909C83.8898 97.9826 83.6981 97.9826 83.5065 97.9826Z" fill="#AD181B"/>
<path fill-rule="evenodd" clip-rule="evenodd" d="M80.8239 95.6814L83.5072 97.2147V144.365L80.8239 142.831V95.6814Z" fill="#D41E21"/>
<path fill-rule="evenodd" clip-rule="evenodd" d="M81.5898 142.257L82.5481 142.832V97.5988L81.5898 97.0238V142.257ZM83.5065 145.324C83.3148 145.324 83.1231 145.324 83.1231 145.132L80.4398 143.599C80.0565 143.407 80.0565 143.215 80.0565 142.832V95.6821C80.0565 95.2988 80.2481 95.1071 80.4398 94.9155C80.8231 94.7238 81.0148 94.7238 81.3981 94.9155L84.0815 96.4488C84.2731 96.6405 84.4648 96.8321 84.4648 97.2155V144.365C84.4648 144.749 84.2731 144.94 84.0815 145.132C83.8898 145.324 83.6981 145.324 83.5065 145.324Z" fill="#AD181B"/>
<path fill-rule="evenodd" clip-rule="evenodd" d="M69.3239 88.9735L111.682 64.4401L114.366 66.1651L72.0072 90.5068L69.3239 88.9735Z" fill="#D41E21"/>
<path fill-rule="evenodd" clip-rule="evenodd" d="M71.0481 88.9735L72.0065 89.5485L112.64 66.1651L111.681 65.5901L71.0481 88.9735ZM72.0065 91.4651C71.8148 91.4651 71.6231 91.4651 71.6231 91.2735L68.9398 89.7401C68.5565 89.5485 68.5565 89.3568 68.5565 88.9735C68.5565 88.5901 68.7481 88.3985 68.9398 88.2068L111.298 63.8651C111.49 63.6735 111.873 63.6735 112.256 63.8651L114.94 65.3985C115.323 65.5901 115.323 65.7818 115.323 66.1651C115.323 66.5485 115.131 66.7401 114.94 66.9318L72.5815 91.2735C72.3898 91.2735 72.1981 91.4651 72.0065 91.4651Z" fill="#AD181B"/>
<path fill-rule="evenodd" clip-rule="evenodd" d="M69.3239 88.9731L72.0072 90.5064V137.656L69.3239 136.123V88.9731Z" fill="#D41E21"/>
<path fill-rule="evenodd" clip-rule="evenodd" d="M70.0898 135.74L71.0481 136.315V91.0821L70.0898 90.5071V135.74ZM72.0065 138.615C71.8148 138.615 71.6231 138.615 71.6231 138.424L68.9398 136.89C68.7481 136.699 68.5565 136.507 68.5565 136.124V88.9738C68.5565 88.5904 68.7481 88.3988 68.9398 88.2071C69.3231 88.0154 69.5148 88.0154 69.8981 88.2071L72.5815 89.7404C72.9648 89.9321 72.9648 90.1238 72.9648 90.5071V137.657C72.9648 138.04 72.7731 138.232 72.5815 138.424C72.3898 138.615 72.1981 138.615 72.0065 138.615Z" fill="#AD181B"/>
<path fill-rule="evenodd" clip-rule="evenodd" d="M127.015 122.133L169.181 97.7909L172.056 99.3242L129.698 123.858L127.015 122.133Z" fill="#D41E21"/>
<path fill-rule="evenodd" clip-rule="evenodd" d="M128.739 122.131L129.697 122.706L170.331 99.3231L169.372 98.7481L128.739 122.131ZM129.697 124.623C129.506 124.623 129.314 124.623 129.314 124.431L126.631 122.898C126.247 122.706 126.247 122.515 126.247 122.131C126.247 121.748 126.439 121.556 126.631 121.365L168.989 97.0231C169.372 96.8314 169.564 96.8314 169.947 97.0231L172.631 98.5564C172.822 98.7481 173.014 98.9398 173.014 99.3231C173.014 99.7064 172.822 99.8981 172.631 100.09L130.272 124.431C129.889 124.623 129.697 124.623 129.697 124.623Z" fill="#AD181B"/>
<path fill-rule="evenodd" clip-rule="evenodd" d="M127.016 122.131L129.699 123.856V171.006L126.824 169.473L127.016 122.131Z" fill="#D41E21"/>
<path fill-rule="evenodd" clip-rule="evenodd" d="M127.781 168.898L128.739 169.473V124.239L127.781 123.664V168.898ZM129.697 171.964C129.506 171.964 129.314 171.964 129.314 171.773L126.631 170.239C126.247 170.048 126.247 169.856 126.247 169.473V122.323C126.247 121.939 126.439 121.748 126.631 121.556C127.014 121.364 127.206 121.364 127.589 121.556L130.272 123.089C130.656 123.281 130.656 123.473 130.656 123.856V171.006C130.656 171.389 130.464 171.581 130.272 171.773C129.889 171.773 129.697 171.964 129.697 171.964Z" fill="#AD181B"/>
<path fill-rule="evenodd" clip-rule="evenodd" d="M57.8239 82.2651L100.182 57.7318L102.866 59.4568L60.5072 83.7984L57.8239 82.2651Z" fill="#D41E21"/>
<path fill-rule="evenodd" clip-rule="evenodd" d="M59.5481 82.2651L60.5064 82.8401L101.14 59.4568L100.181 58.8818L59.5481 82.2651ZM60.5064 84.7568C60.3148 84.7568 60.1231 84.7568 60.1231 84.5651L57.4398 83.0318C57.0564 82.8401 57.0564 82.6485 57.0564 82.2651C57.0564 81.8818 57.2481 81.6901 57.4398 81.4985L99.7981 57.1568C100.181 56.9651 100.373 56.9651 100.565 57.1568L103.248 58.6901C103.631 58.8818 103.631 59.0735 103.631 59.4568C103.631 59.8401 103.44 60.0318 103.248 60.2235L60.8898 84.5651C60.8898 84.7568 60.6981 84.7568 60.5064 84.7568Z" fill="#AD181B"/>
<path fill-rule="evenodd" clip-rule="evenodd" d="M57.8239 82.2647L60.5072 83.798V131.14L57.8239 129.415V82.2647Z" fill="#D41E21"/>
<path fill-rule="evenodd" clip-rule="evenodd" d="M58.5898 129.032L59.5481 129.607V84.3739L58.5898 83.7989V129.032ZM60.5064 131.907C60.3148 131.907 60.1231 131.907 60.1231 131.716L57.4398 130.182C57.0564 129.991 57.0564 129.799 57.0564 129.416V82.2655C57.0564 81.8822 57.2481 81.6905 57.4398 81.4989C57.8231 81.3072 58.0148 81.3072 58.3981 81.4989L61.0814 83.0322C61.4648 83.2239 61.4648 83.4155 61.4648 83.7989V130.949C61.4648 131.332 61.2731 131.524 61.0814 131.716C60.6981 131.907 60.5064 131.907 60.5064 131.907Z" fill="#AD181B"/>
<path fill-rule="evenodd" clip-rule="evenodd" d="M132.956 125.581L168.606 104.881V144.939L132.956 165.639V125.581Z" fill="#FA2327"/>
<path fill-rule="evenodd" clip-rule="evenodd" d="M133.723 126.157V164.107L167.84 144.365V106.415L133.723 126.157ZM132.957 166.407C132.765 166.407 132.573 166.407 132.573 166.215C132.19 166.023 132.19 165.832 132.19 165.448V125.582C132.19 125.199 132.382 125.007 132.573 124.815L168.415 104.115C168.798 103.924 168.99 103.924 169.373 104.115C169.757 104.307 169.757 104.499 169.757 104.882V144.94C169.757 145.324 169.565 145.515 169.373 145.707L133.532 166.407C133.148 166.407 132.957 166.407 132.957 166.407Z" fill="#AD181B"/>
<path fill-rule="evenodd" clip-rule="evenodd" d="M154.231 120.789C153.848 120.789 153.656 120.598 153.465 120.406C153.273 120.023 153.465 119.448 153.848 119.256L164.39 113.123C164.773 112.931 165.348 112.931 165.54 113.506C165.731 113.889 165.54 114.464 165.156 114.656L154.615 120.789C154.615 120.789 154.423 120.789 154.231 120.789Z" fill="#AD181B"/>
<path fill-rule="evenodd" clip-rule="evenodd" d="M154.231 148.774C153.848 148.774 153.656 148.582 153.465 148.391C153.273 148.007 153.465 147.432 153.848 147.241L164.39 141.107C164.773 140.916 165.348 140.916 165.54 141.491C165.731 141.874 165.54 142.449 165.156 142.641L154.615 148.774C154.615 148.582 154.423 148.774 154.231 148.774Z" fill="#AD181B"/>
<path fill-rule="evenodd" clip-rule="evenodd" d="M154.231 141.682C153.848 141.682 153.656 141.49 153.465 141.299C153.273 140.915 153.465 140.34 153.848 140.149L164.39 134.015C164.773 133.824 165.348 133.824 165.54 134.399C165.731 134.782 165.54 135.357 165.156 135.549L154.615 141.682C154.615 141.682 154.423 141.682 154.231 141.682Z" fill="#AD181B"/>
<path fill-rule="evenodd" clip-rule="evenodd" d="M154.231 134.783C153.848 134.783 153.656 134.591 153.465 134.399C153.273 134.016 153.465 133.441 153.848 133.249L164.39 127.116C164.773 126.924 165.348 126.924 165.54 127.499C165.731 127.883 165.54 128.458 165.156 128.649L154.615 134.783C154.615 134.783 154.423 134.783 154.231 134.783Z" fill="#AD181B"/>
<path fill-rule="evenodd" clip-rule="evenodd" d="M154.231 127.691C153.848 127.691 153.656 127.499 153.465 127.307C153.273 126.924 153.465 126.349 153.848 126.157L164.39 120.024C164.773 119.832 165.348 119.832 165.54 120.407C165.731 120.791 165.54 121.366 165.156 121.557L154.615 127.691C154.615 127.691 154.423 127.691 154.231 127.691Z" fill="#AD181B"/>
<path fill-rule="evenodd" clip-rule="evenodd" d="M136.598 130.949C136.214 130.949 136.023 130.757 135.831 130.565C135.639 130.182 135.831 129.607 136.214 129.415L147.523 122.899C147.906 122.707 148.481 122.899 148.673 123.282C148.864 123.665 148.864 124.24 148.289 124.432L136.981 130.949C136.789 130.949 136.789 130.949 136.598 130.949Z" fill="#AD181B"/>
<path fill-rule="evenodd" clip-rule="evenodd" d="M136.598 158.741C136.214 158.741 136.023 158.549 135.831 158.357C135.639 157.974 135.831 157.399 136.214 157.207L147.523 150.691C147.906 150.499 148.481 150.499 148.673 151.074C148.864 151.457 148.864 152.032 148.289 152.224L136.981 158.741C136.789 158.741 136.789 158.741 136.598 158.741Z" fill="#AD181B"/>
<path fill-rule="evenodd" clip-rule="evenodd" d="M136.598 137.848C136.214 137.848 136.023 137.656 135.831 137.465C135.639 137.081 135.831 136.506 136.214 136.315L147.523 129.798C147.906 129.606 148.481 129.798 148.673 130.181C148.864 130.565 148.864 131.14 148.289 131.331L136.981 137.848C136.789 137.848 136.789 137.848 136.598 137.848Z" fill="#AD181B"/>
<path fill-rule="evenodd" clip-rule="evenodd" d="M136.598 151.839C136.214 151.839 136.023 151.648 135.831 151.456C135.639 151.073 135.831 150.498 136.214 150.306L147.523 143.789C147.906 143.598 148.481 143.789 148.673 144.173C148.864 144.556 148.864 145.131 148.289 145.323L136.981 151.839C136.789 151.839 136.789 151.839 136.598 151.839Z" fill="#AD181B"/>
<path fill-rule="evenodd" clip-rule="evenodd" d="M136.598 144.94C136.214 144.94 136.023 144.749 135.831 144.557C135.639 144.174 135.831 143.599 136.214 143.407L147.523 136.89C147.906 136.699 148.481 136.699 148.673 137.274C148.864 137.657 148.864 138.232 148.289 138.424L136.981 144.94C136.789 144.749 136.789 144.94 136.598 144.94Z" fill="#AD181B"/>
<path fill-rule="evenodd" clip-rule="evenodd" d="M150.782 156.057C150.207 156.057 149.824 155.673 149.824 155.098V115.232C149.824 114.657 150.207 114.273 150.782 114.273C151.166 114.273 151.741 114.657 151.741 115.232V155.098C151.741 155.673 151.357 156.057 150.782 156.057Z" fill="#AD181B"/>
</g>
<defs>
<filter id="filter0_dd_17803_58882" x="25.8745" y="13.4766" width="178.251" height="203.047" filterUnits="userSpaceOnUse" color-interpolation-filters="sRGB">
<feFlood flood-opacity="0" result="BackgroundImageFix"/>
<feColorMatrix in="SourceAlpha" type="matrix" values="0 0 0 0 0 0 0 0 0 0 0 0 0 0 0 0 0 0 127 0" result="hardAlpha"/>
<feOffset dx="-2.24609" dy="-2.24609"/>
<feGaussianBlur stdDeviation="3.36914"/>
<feColorMatrix type="matrix" values="0 0 0 0 1 0 0 0 0 1 0 0 0 0 1 0 0 0 1 0"/>
<feBlend mode="normal" in2="BackgroundImageFix" result="effect1_dropShadow_17803_58882"/>
<feColorMatrix in="SourceAlpha" type="matrix" values="0 0 0 0 0 0 0 0 0 0 0 0 0 0 0 0 0 0 127 0" result="hardAlpha"/>
<feOffset dx="2.24609" dy="2.24609"/>
<feGaussianBlur stdDeviation="3.36914"/>
<feColorMatrix type="matrix" values="0 0 0 0 0.682353 0 0 0 0 0.682353 0 0 0 0 0.752941 0 0 0 0.4 0"/>
<feBlend mode="normal" in2="effect1_dropShadow_17803_58882" result="effect2_dropShadow_17803_58882"/>
<feBlend mode="normal" in="SourceGraphic" in2="effect2_dropShadow_17803_58882" result="shape"/>
</filter>
<clipPath id="clip0_17803_58882">
<rect width="115.958" height="115" fill="white" transform="translate(57 57)"/>
</clipPath>
</defs>
</svg>
